# This file uses centimeters as units for non-parametric coordinates.

mtllib Syringe.mtl
g default
v 0.707107 1.266060 -0.707107
v 0.000000 1.266060 -1.000000
v -0.707107 1.266060 -0.707107
v -1.000000 1.266060 0.000000
v -0.707107 1.266060 0.707107
v 0.000000 1.266060 1.000000
v 0.707107 1.266060 0.707107
v 1.000000 1.266060 0.000000
v 0.707107 9.266060 -0.707107
v 0.000000 9.266060 -1.000000
v -0.707107 9.266060 -0.707107
v -1.000000 9.266060 -0.000000
v -0.707107 9.266060 0.707107
v 0.000000 9.266060 1.000000
v 0.707107 9.266060 0.707107
v 1.000000 9.266060 -0.000000
v 0.000000 1.266060 0.000000
v 0.000000 9.266060 -0.000000
v 0.560071 9.266060 -0.560071
v 0.000000 9.266060 -0.792060
v -0.560071 9.266060 -0.560071
v -0.792060 9.266060 0.000000
v -0.560071 9.266060 0.560071
v 0.000000 9.266060 0.792060
v 0.560071 9.266060 0.560071
v 0.792060 9.266060 0.000000
v 0.340128 10.266060 -0.340128
v 0.000000 10.266060 -0.481014
v -0.340128 10.266060 -0.340128
v -0.481014 10.266060 0.000000
v -0.340128 10.266060 0.340128
v 0.000000 10.266060 0.481014
v 0.340129 10.266060 0.340128
v 0.481014 10.266060 0.000000
v 0.000000 9.266060 0.000000
v 0.000000 10.266060 0.000000
v 0.247487 10.066060 -0.247487
v 0.000000 10.066060 -0.350000
v -0.247487 10.066060 -0.247487
v -0.350000 10.066060 0.000000
v -0.247487 10.066060 0.247487
v 0.000000 10.066060 0.350000
v 0.247487 10.066060 0.247487
v 0.350000 10.066060 0.000000
v 0.247487 10.466059 -0.247487
v 0.000000 10.466059 -0.350000
v -0.247487 10.466059 -0.247487
v -0.350000 10.466059 0.000000
v -0.247487 10.466059 0.247487
v 0.000000 10.466059 0.350000
v 0.247487 10.466059 0.247487
v 0.350000 10.466059 0.000000
v 0.000000 10.066060 0.000000
v 0.000000 10.466059 0.000000
v 0.848528 -0.125000 -0.848528
v 0.000000 -0.125000 -1.200000
v -0.848528 -0.125000 -0.848528
v -1.200000 -0.125000 0.000000
v -0.848528 -0.125000 0.848528
v 0.000000 -0.125000 1.200000
v 0.848528 -0.125000 0.848528
v 1.200000 -0.125000 0.000000
v 0.848528 0.125000 -0.848528
v 0.000000 0.125000 -1.200000
v -0.848528 0.125000 -0.848528
v -1.200000 0.125000 0.000000
v -0.848528 0.125000 0.848528
v 0.000000 0.125000 1.200000
v 0.848528 0.125000 0.848528
v 1.200000 0.125000 0.000000
v 0.000000 -0.125000 0.000000
v 0.000000 0.125000 0.000000
v 0.750000 0.025422 0.125000
v 0.750000 0.025422 -0.125000
v 0.750000 1.275422 0.125000
v 0.750000 1.275422 -0.125000
v -0.750000 1.275422 0.125000
v -0.750000 1.275422 -0.125000
v -0.750000 0.025422 0.125000
v -0.750000 0.025422 -0.125000
v -0.125000 0.025422 0.750000
v 0.125000 0.025422 0.750000
v -0.125000 1.275422 0.750000
v 0.125000 1.275422 0.750000
v -0.125000 1.275422 -0.750000
v 0.125000 1.275422 -0.750000
v -0.125000 0.025422 -0.750000
v 0.125000 0.025422 -0.750000
v 0.030518 10.266060 -0.030518
v 0.000000 10.266060 -0.043159
v -0.030518 10.266060 -0.030518
v -0.043158 10.266060 0.000000
v -0.030518 10.266060 0.030518
v 0.000000 10.266060 0.043159
v 0.030518 10.266060 0.030518
v 0.043159 10.266060 0.000000
v 0.005973 14.266060 -0.005972
v 0.000000 14.266060 -0.008446
v -0.005972 14.266060 -0.005972
v -0.008446 14.266060 0.000000
v -0.005972 14.266060 0.005972
v 0.000000 14.266060 0.008446
v 0.005973 14.266060 0.005973
v 0.008446 14.266060 0.000000
v 0.000000 10.266060 0.000000
v 0.000000 14.266060 0.000000
vt 0.805742 0.065265
vt 0.700000 0.021465
vt 0.594258 0.065265
vt 0.550458 0.171007
vt 0.594258 0.276750
vt 0.700000 0.320549
vt 0.805742 0.276750
vt 0.849542 0.171007
vt 0.580366 0.320549
vt 0.610275 0.320549
vt 0.640183 0.320549
vt 0.670092 0.320549
vt 0.700000 0.320549
vt 0.729908 0.320549
vt 0.759817 0.320549
vt 0.789725 0.320549
vt 0.819634 0.320549
vt 0.580366 0.680350
vt 0.610275 0.680350
vt 0.640183 0.680350
vt 0.670092 0.680350
vt 0.700000 0.680350
vt 0.729908 0.680350
vt 0.759817 0.680350
vt 0.789725 0.680350
vt 0.819634 0.680350
vt 0.805742 0.723250
vt 0.700000 0.679451
vt 0.594258 0.723250
vt 0.550458 0.828993
vt 0.594258 0.934735
vt 0.700000 0.978535
vt 0.805742 0.934735
vt 0.849542 0.828993
vt 0.700000 0.165026
vt 0.700000 0.823011
vt 0.203033 0.403033
vt 0.150000 0.425000
vt 0.150000 0.395547
vt 0.182207 0.382207
vt 0.096967 0.403033
vt 0.117793 0.382207
vt 0.075000 0.350000
vt 0.104453 0.350000
vt 0.096967 0.296967
vt 0.117793 0.317793
vt 0.150000 0.275000
vt 0.150000 0.304453
vt 0.203033 0.296967
vt 0.182207 0.317793
vt 0.225000 0.350000
vt 0.195547 0.350000
vt 0.150000 0.350000
vt 0.150000 0.350000
vt 0.220711 0.670711
vt 0.150000 0.700000
vt 0.150000 0.700000
vt 0.220711 0.670711
vt 0.079289 0.670711
vt 0.079289 0.670711
vt 0.050000 0.600000
vt 0.050000 0.600000
vt 0.079289 0.529289
vt 0.079289 0.529289
vt 0.150000 0.500000
vt 0.150000 0.500000
vt 0.220711 0.529289
vt 0.220711 0.529289
vt 0.250000 0.600000
vt 0.250000 0.600000
vt 0.150000 0.600000
vt 0.150000 0.600000
vt 0.220711 0.220711
vt 0.150000 0.250000
vt 0.150000 0.250000
vt 0.220711 0.220711
vt 0.079289 0.220711
vt 0.079289 0.220711
vt 0.050000 0.150000
vt 0.050000 0.150000
vt 0.079289 0.079289
vt 0.079289 0.079289
vt 0.150000 0.050000
vt 0.150000 0.050000
vt 0.220711 0.079289
vt 0.220711 0.079289
vt 0.250000 0.150000
vt 0.250000 0.150000
vt 0.150000 0.150000
vt 0.150000 0.150000
vt 0.212500 0.139583
vt 0.212500 0.160417
vt 0.212500 0.160417
vt 0.212500 0.139583
vt 0.087500 0.160417
vt 0.087500 0.139583
vt 0.087500 0.160417
vt 0.087500 0.139583
vt 0.139583 0.087500
vt 0.160417 0.087500
vt 0.160417 0.087500
vt 0.139583 0.087500
vt 0.160417 0.212500
vt 0.139583 0.212500
vt 0.160417 0.212500
vt 0.139583 0.212500
vt 0.185355 0.835355
vt 0.150000 0.850000
vt 0.150000 0.809785
vt 0.156919 0.806919
vt 0.114645 0.835355
vt 0.143081 0.806919
vt 0.100000 0.800000
vt 0.140215 0.800000
vt 0.114645 0.764645
vt 0.143081 0.793081
vt 0.150000 0.750000
vt 0.150000 0.790215
vt 0.185355 0.764645
vt 0.156919 0.793081
vt 0.200000 0.800000
vt 0.159785 0.800000
vt 0.150000 0.800000
vt 0.150000 0.800000
vn 0.382683 -0.000000 -0.923880
vn 0.382683 -0.000000 -0.923880
vn 0.382683 -0.000000 -0.923880
vn 0.382684 -0.000000 -0.923880
vn -0.382683 -0.000000 -0.923880
vn -0.382683 -0.000000 -0.923880
vn -0.382684 -0.000000 -0.923880
vn -0.382684 -0.000000 -0.923880
vn -0.923880 -0.000000 -0.382683
vn -0.923880 -0.000000 -0.382683
vn -0.923880 -0.000000 -0.382684
vn -0.923880 -0.000000 -0.382684
vn -0.923880 -0.000000 0.382683
vn -0.923880 -0.000000 0.382683
vn -0.923880 0.000000 0.382684
vn -0.923880 0.000000 0.382684
vn -0.382684 0.000000 0.923880
vn -0.382684 0.000000 0.923880
vn -0.382683 0.000000 0.923880
vn -0.382684 0.000000 0.923880
vn 0.382683 -0.000000 0.923880
vn 0.382683 -0.000000 0.923880
vn 0.382683 0.000000 0.923880
vn 0.382683 0.000000 0.923880
vn 0.923880 -0.000000 0.382683
vn 0.923880 -0.000000 0.382683
vn 0.923880 -0.000000 0.382683
vn 0.923880 -0.000000 0.382683
vn 0.923880 -0.000000 -0.382684
vn 0.923880 -0.000000 -0.382683
vn 0.923880 -0.000000 -0.382684
vn 0.923880 -0.000000 -0.382684
vn 0.000000 -1.000000 0.000000
vn 0.000000 -1.000000 0.000000
vn 0.000000 -1.000000 0.000000
vn 0.000000 -1.000000 0.000000
vn 0.000000 -1.000000 0.000000
vn 0.000000 -1.000000 -0.000000
vn 0.000000 -1.000000 0.000000
vn 0.000000 -1.000000 0.000000
vn 0.000000 -1.000000 0.000000
vn 0.000000 1.000000 0.000000
vn 0.000000 1.000000 0.000000
vn 0.000000 1.000000 -0.000000
vn 0.000000 1.000000 0.000000
vn 0.000000 1.000000 0.000000
vn 0.000000 1.000000 0.000000
vn 0.000000 1.000000 0.000000
vn 0.000000 1.000000 -0.000001
vn 0.000000 1.000000 -0.000001
vn 0.367798 0.276191 -0.887943
vn 0.367798 0.276191 -0.887943
vn 0.367798 0.276191 -0.887943
vn 0.367798 0.276191 -0.887943
vn -0.367798 0.276191 -0.887943
vn -0.367798 0.276191 -0.887943
vn -0.367798 0.276190 -0.887944
vn -0.367798 0.276190 -0.887944
vn -0.887944 0.276191 -0.367798
vn -0.887943 0.276191 -0.367798
vn -0.887943 0.276190 -0.367799
vn -0.887943 0.276190 -0.367800
vn -0.887943 0.276190 0.367799
vn -0.887943 0.276190 0.367799
vn -0.887943 0.276191 0.367798
vn -0.887944 0.276191 0.367798
vn -0.367798 0.276191 0.887943
vn -0.367798 0.276191 0.887943
vn -0.367798 0.276191 0.887943
vn -0.367798 0.276191 0.887943
vn 0.367798 0.276190 0.887944
vn 0.367798 0.276190 0.887943
vn 0.367798 0.276191 0.887943
vn 0.367799 0.276191 0.887943
vn 0.887943 0.276191 0.367798
vn 0.887943 0.276191 0.367798
vn 0.887943 0.276191 0.367798
vn 0.887943 0.276191 0.367798
vn 0.887943 0.276191 -0.367798
vn 0.887943 0.276191 -0.367798
vn 0.887943 0.276191 -0.367798
vn 0.887943 0.276190 -0.367798
vn 0.000000 -1.000000 0.000000
vn 0.000000 -1.000000 0.000000
vn 0.000000 -1.000000 0.000000
vn 0.000000 -1.000000 0.000000
vn 0.000000 -1.000000 0.000000
vn 0.000000 -1.000000 0.000000
vn 0.000000 -1.000000 0.000000
vn 0.000000 -1.000000 0.000001
vn 0.000000 -1.000000 0.000001
vn 0.000000 1.000000 0.000000
vn 0.000000 1.000000 0.000000
vn 0.000000 1.000000 -0.000001
vn 0.000000 1.000000 -0.000001
vn 0.000000 1.000000 -0.000001
vn 0.000000 1.000000 0.000000
vn 0.000000 1.000000 0.000000
vn 0.000000 1.000000 -0.000001
vn 0.000000 1.000000 -0.000001
vn 0.382683 0.000000 -0.923880
vn 0.382684 0.000000 -0.923880
vn 0.382684 0.000000 -0.923879
vn 0.382685 0.000000 -0.923879
vn -0.382683 0.000000 -0.923880
vn -0.382684 0.000000 -0.923880
vn -0.382684 0.000000 -0.923879
vn -0.382685 0.000000 -0.923879
vn -0.923880 0.000000 -0.382683
vn -0.923880 0.000000 -0.382683
vn -0.923880 0.000000 -0.382683
vn -0.923880 0.000000 -0.382683
vn -0.923880 0.000000 0.382683
vn -0.923880 0.000000 0.382683
vn -0.923880 0.000000 0.382683
vn -0.923880 0.000000 0.382683
vn -0.382683 0.000000 0.923880
vn -0.382684 0.000000 0.923880
vn -0.382684 0.000000 0.923879
vn -0.382685 0.000000 0.923879
vn 0.382681 0.000000 0.923880
vn 0.382683 0.000000 0.923880
vn 0.382683 0.000000 0.923880
vn 0.382685 0.000000 0.923879
vn 0.923879 0.000000 0.382685
vn 0.923879 0.000000 0.382684
vn 0.923880 0.000000 0.382683
vn 0.923880 0.000000 0.382681
vn 0.923879 0.000000 -0.382685
vn 0.923879 0.000000 -0.382685
vn 0.923879 0.000000 -0.382684
vn 0.923880 0.000000 -0.382683
vn 0.000000 -1.000000 0.000000
vn 0.000000 -1.000000 -0.000003
vn 0.000000 -1.000000 -0.000001
vn 0.000000 -1.000000 -0.000003
vn 0.000000 -1.000000 0.000000
vn 0.000000 -1.000000 0.000003
vn 0.000000 -1.000000 0.000000
vn 0.000000 -1.000000 0.000000
vn 0.000000 -1.000000 -0.000003
vn 0.000000 1.000000 0.000000
vn 0.000000 1.000000 0.000000
vn 0.000000 1.000000 0.000000
vn 0.000000 1.000000 0.000000
vn 0.000000 1.000000 0.000000
vn 0.000000 1.000000 0.000000
vn 0.000000 1.000000 0.000000
vn 0.000000 1.000000 0.000000
vn 0.000000 1.000000 0.000000
vn 0.382683 0.000000 -0.923880
vn 0.382683 0.000000 -0.923880
vn 0.382683 0.000000 -0.923880
vn 0.382683 0.000000 -0.923880
vn -0.382683 0.000000 -0.923880
vn -0.382683 0.000000 -0.923880
vn -0.382683 0.000000 -0.923880
vn -0.382683 0.000000 -0.923880
vn -0.923880 0.000000 -0.382683
vn -0.923880 0.000000 -0.382683
vn -0.923880 0.000000 -0.382683
vn -0.923880 0.000000 -0.382683
vn -0.923880 0.000000 0.382683
vn -0.923880 0.000000 0.382683
vn -0.923880 0.000000 0.382683
vn -0.923880 0.000000 0.382683
vn -0.382683 0.000000 0.923880
vn -0.382683 0.000000 0.923880
vn -0.382683 0.000000 0.923880
vn -0.382683 0.000000 0.923880
vn 0.382683 0.000000 0.923880
vn 0.382683 0.000000 0.923880
vn 0.382683 0.000000 0.923880
vn 0.382683 0.000000 0.923880
vn 0.923880 0.000000 0.382683
vn 0.923880 0.000000 0.382683
vn 0.923880 0.000000 0.382683
vn 0.923880 0.000000 0.382683
vn 0.923880 0.000000 -0.382684
vn 0.923880 0.000000 -0.382684
vn 0.923880 0.000000 -0.382684
vn 0.923880 0.000000 -0.382684
vn 0.000000 -1.000000 0.000000
vn 0.000000 -1.000000 0.000000
vn 0.000000 -1.000000 0.000000
vn 0.000000 -1.000000 0.000000
vn 0.000000 -1.000000 0.000000
vn 0.000000 -1.000000 0.000000
vn 0.000000 -1.000000 0.000000
vn 0.000000 -1.000000 0.000000
vn 0.000000 -1.000000 0.000000
vn 0.000000 1.000000 0.000000
vn 0.000000 1.000000 0.000000
vn 0.000000 1.000000 0.000000
vn 0.000000 1.000000 0.000000
vn 0.000000 1.000000 0.000000
vn 0.000000 1.000000 0.000000
vn 0.000000 1.000000 0.000000
vn 0.000000 1.000000 0.000000
vn 0.000000 1.000000 0.000000
vn 1.000000 0.000000 0.000000
vn 1.000000 0.000000 0.000000
vn 1.000000 0.000000 0.000000
vn 1.000000 0.000000 0.000000
vn 0.000000 1.000000 0.000000
vn 0.000000 1.000000 0.000000
vn 0.000000 1.000000 0.000000
vn 0.000000 1.000000 0.000000
vn -1.000000 0.000000 0.000000
vn -1.000000 0.000000 0.000000
vn -1.000000 0.000000 0.000000
vn -1.000000 0.000000 0.000000
vn 0.000000 -1.000000 0.000000
vn 0.000000 -1.000000 0.000000
vn 0.000000 -1.000000 0.000000
vn 0.000000 -1.000000 0.000000
vn 0.000000 0.000000 -1.000000
vn 0.000000 0.000000 -1.000000
vn 0.000000 0.000000 -1.000000
vn 0.000000 0.000000 -1.000000
vn 0.000000 0.000000 1.000000
vn 0.000000 0.000000 1.000000
vn 0.000000 0.000000 1.000000
vn 0.000000 0.000000 1.000000
vn 0.000000 0.000000 1.000000
vn 0.000000 0.000000 1.000000
vn 0.000000 0.000000 1.000000
vn 0.000000 0.000000 1.000000
vn 0.000000 1.000000 0.000000
vn 0.000000 1.000000 0.000000
vn 0.000000 1.000000 0.000000
vn 0.000000 1.000000 0.000000
vn 0.000000 0.000000 -1.000000
vn 0.000000 0.000000 -1.000000
vn 0.000000 0.000000 -1.000000
vn 0.000000 0.000000 -1.000000
vn 0.000000 -1.000000 0.000000
vn 0.000000 -1.000000 0.000000
vn 0.000000 -1.000000 0.000000
vn 0.000000 -1.000000 0.000000
vn 1.000000 0.000000 0.000000
vn 1.000000 0.000000 0.000000
vn 1.000000 0.000000 0.000000
vn 1.000000 0.000000 0.000000
vn -1.000000 0.000000 0.000000
vn -1.000000 0.000000 0.000000
vn -1.000000 0.000000 0.000000
vn -1.000000 0.000000 0.000000
vn 0.382671 0.008017 -0.923850
vn 0.382671 0.008017 -0.923850
vn 0.382669 0.008017 -0.923851
vn 0.382669 0.008017 -0.923851
vn -0.382671 0.008017 -0.923850
vn -0.382671 0.008017 -0.923850
vn -0.382669 0.008017 -0.923851
vn -0.382669 0.008017 -0.923851
vn -0.923850 0.008017 -0.382672
vn -0.923850 0.008017 -0.382672
vn -0.923851 0.008017 -0.382669
vn -0.923851 0.008017 -0.382669
vn -0.923850 0.008017 0.382671
vn -0.923850 0.008017 0.382671
vn -0.923851 0.008017 0.382669
vn -0.923851 0.008017 0.382669
vn -0.382671 0.008017 0.923850
vn -0.382671 0.008017 0.923850
vn -0.382670 0.008017 0.923850
vn -0.382670 0.008017 0.923851
vn 0.382671 0.008017 0.923850
vn 0.382671 0.008017 0.923850
vn 0.382669 0.008017 0.923851
vn 0.382669 0.008017 0.923851
vn 0.923850 0.008017 0.382671
vn 0.923850 0.008017 0.382671
vn 0.923851 0.008017 0.382669
vn 0.923851 0.008017 0.382669
vn 0.923850 0.008017 -0.382671
vn 0.923850 0.008017 -0.382671
vn 0.923850 0.008017 -0.382671
vn 0.923850 0.008017 -0.382671
vn 0.000000 -1.000000 0.000000
vn 0.000000 -1.000000 0.000000
vn 0.000000 -1.000000 -0.000000
vn 0.000000 -1.000000 0.000023
vn 0.000000 -1.000000 0.000000
vn 0.000000 -1.000000 -0.000023
vn 0.000000 -1.000000 0.000000
vn 0.000000 -1.000000 0.000000
vn 0.000000 -1.000000 0.000000
vn 0.000000 1.000000 0.000000
vn 0.000000 1.000000 0.000000
vn 0.000000 1.000000 -0.000037
vn 0.000000 1.000000 0.000000
vn 0.000000 1.000000 0.000000
vn 0.000000 1.000000 0.000000
vn 0.000000 1.000000 0.000000
vn 0.000000 1.000000 -0.000148
vn 0.000000 1.000000 -0.000148
s 1
g pCylinder8
usemtl initialShadingGroup
f 1/9/1 2/10/2 9/18/3
f 9/18/3 2/10/2 10/19/4
s 2
f 2/10/5 3/11/6 10/19/7
f 10/19/7 3/11/6 11/20/8
s 3
f 3/11/9 4/12/10 11/20/11
f 11/20/11 4/12/10 12/21/12
s 4
f 4/12/13 5/13/14 12/21/15
f 12/21/15 5/13/14 13/22/16
s 5
f 5/13/17 6/14/18 13/22/19
f 13/22/19 6/14/18 14/23/20
s 6
f 6/14/21 7/15/22 14/23/23
f 14/23/23 7/15/22 15/24/24
s 7
f 7/15/25 8/16/26 15/24/27
f 15/24/27 8/16/26 16/25/28
s 8
f 8/16/29 1/17/30 16/25/31
f 16/25/31 1/17/30 9/26/32
s 9
f 2/2/33 1/1/34 17/35/35
f 3/3/36 2/2/33 17/35/35
f 4/4/37 3/3/36 17/35/35
f 5/5/38 4/4/37 17/35/35
f 6/6/39 5/5/38 17/35/35
f 7/7/40 6/6/39 17/35/35
f 8/8/41 7/7/40 17/35/35
f 1/1/34 8/8/41 17/35/35
s 10
f 9/33/42 10/32/43 18/36/44
f 10/32/43 11/31/45 18/36/44
f 11/31/45 12/30/46 18/36/44
f 12/30/46 13/29/47 18/36/44
f 13/29/47 14/28/48 18/36/44
f 14/28/48 15/27/49 18/36/44
f 15/27/49 16/34/50 18/36/44
f 16/34/50 9/33/42 18/36/44
s 11
f 19/37/51 20/38/52 27/40/53
f 27/40/53 20/38/52 28/39/54
s 12
f 20/38/55 21/41/56 28/39/57
f 28/39/57 21/41/56 29/42/58
s 13
f 21/41/59 22/43/60 29/42/61
f 29/42/61 22/43/60 30/44/62
s 14
f 22/43/63 23/45/64 30/44/65
f 30/44/65 23/45/64 31/46/66
s 15
f 23/45/67 24/47/68 31/46/69
f 31/46/69 24/47/68 32/48/70
s 16
f 24/47/71 25/49/72 32/48/73
f 32/48/73 25/49/72 33/50/74
s 17
f 25/49/75 26/51/76 33/50/77
f 33/50/77 26/51/76 34/52/78
s 18
f 26/51/79 19/37/80 34/52/81
f 34/52/81 19/37/80 27/40/82
s 19
f 20/38/83 19/37/84 35/53/85
f 21/41/86 20/38/83 35/53/85
f 22/43/87 21/41/86 35/53/85
f 23/45/88 22/43/87 35/53/85
f 24/47/89 23/45/88 35/53/85
f 25/49/90 24/47/89 35/53/85
f 26/51/91 25/49/90 35/53/85
f 19/37/84 26/51/91 35/53/85
s 20
f 27/40/92 28/39/93 36/54/94
f 28/39/93 29/42/95 36/54/94
f 29/42/95 30/44/96 36/54/94
f 30/44/96 31/46/97 36/54/94
f 31/46/97 32/48/98 36/54/94
f 32/48/98 33/50/99 36/54/94
f 33/50/99 34/52/100 36/54/94
f 34/52/100 27/40/92 36/54/94
s 21
f 37/55/101 38/56/102 45/58/103
f 45/58/103 38/56/102 46/57/104
s 22
f 38/56/105 39/59/106 46/57/107
f 46/57/107 39/59/106 47/60/108
s 23
f 39/59/109 40/61/110 47/60/111
f 47/60/111 40/61/110 48/62/112
s 24
f 40/61/113 41/63/114 48/62/115
f 48/62/115 41/63/114 49/64/116
s 25
f 41/63/117 42/65/118 49/64/119
f 49/64/119 42/65/118 50/66/120
s 26
f 42/65/121 43/67/122 50/66/123
f 50/66/123 43/67/122 51/68/124
s 27
f 43/67/125 44/69/126 51/68/127
f 51/68/127 44/69/126 52/70/128
s 28
f 44/69/129 37/55/130 52/70/131
f 52/70/131 37/55/130 45/58/132
s 29
f 38/56/133 37/55/134 53/71/135
f 39/59/136 38/56/133 53/71/135
f 40/61/137 39/59/136 53/71/135
f 41/63/138 40/61/137 53/71/135
f 42/65/139 41/63/138 53/71/135
f 43/67/140 42/65/139 53/71/135
f 44/69/141 43/67/140 53/71/135
f 37/55/134 44/69/141 53/71/135
s 30
f 45/58/142 46/57/143 54/72/144
f 46/57/143 47/60/145 54/72/144
f 47/60/145 48/62/146 54/72/144
f 48/62/146 49/64/147 54/72/144
f 49/64/147 50/66/148 54/72/144
f 50/66/148 51/68/149 54/72/144
f 51/68/149 52/70/150 54/72/144
f 52/70/150 45/58/142 54/72/144
s 31
f 55/73/151 56/74/152 63/76/153
f 63/76/153 56/74/152 64/75/154
s 32
f 56/74/155 57/77/156 64/75/157
f 64/75/157 57/77/156 65/78/158
s 33
f 57/77/159 58/79/160 65/78/161
f 65/78/161 58/79/160 66/80/162
s 34
f 58/79/163 59/81/164 66/80/165
f 66/80/165 59/81/164 67/82/166
s 35
f 59/81/167 60/83/168 67/82/169
f 67/82/169 60/83/168 68/84/170
s 36
f 60/83/171 61/85/172 68/84/173
f 68/84/173 61/85/172 69/86/174
s 37
f 61/85/175 62/87/176 69/86/177
f 69/86/177 62/87/176 70/88/178
s 38
f 62/87/179 55/73/180 70/88/181
f 70/88/181 55/73/180 63/76/182
s 39
f 56/74/183 55/73/184 71/89/185
f 57/77/186 56/74/183 71/89/185
f 58/79/187 57/77/186 71/89/185
f 59/81/188 58/79/187 71/89/185
f 60/83/189 59/81/188 71/89/185
f 61/85/190 60/83/189 71/89/185
f 62/87/191 61/85/190 71/89/185
f 55/73/184 62/87/191 71/89/185
s 40
f 63/76/192 64/75/193 72/90/194
f 64/75/193 65/78/195 72/90/194
f 65/78/195 66/80/196 72/90/194
f 66/80/196 67/82/197 72/90/194
f 67/82/197 68/84/198 72/90/194
f 68/84/198 69/86/199 72/90/194
f 69/86/199 70/88/200 72/90/194
f 70/88/200 63/76/192 72/90/194
s 41
f 73/91/201 74/92/202 75/94/203
f 75/94/203 74/92/202 76/93/204
s 42
f 75/94/205 76/93/206 77/96/207
f 77/96/207 76/93/206 78/95/208
s 43
f 77/96/209 78/95/210 79/98/211
f 79/98/211 78/95/210 80/97/212
s 44
f 79/98/213 80/97/214 73/91/215
f 73/91/215 80/97/214 74/92/216
s 45
f 74/92/217 80/97/218 76/93/219
f 76/93/219 80/97/218 78/95/220
s 46
f 79/98/221 73/91/222 77/96/223
f 77/96/223 73/91/222 75/94/224
s 47
f 81/99/225 82/100/226 83/102/227
f 83/102/227 82/100/226 84/101/228
s 48
f 83/102/229 84/101/230 85/104/231
f 85/104/231 84/101/230 86/103/232
s 49
f 85/104/233 86/103/234 87/106/235
f 87/106/235 86/103/234 88/105/236
s 50
f 87/106/237 88/105/238 81/99/239
f 81/99/239 88/105/238 82/100/240
s 51
f 82/100/241 88/105/242 84/101/243
f 84/101/243 88/105/242 86/103/244
s 52
f 87/106/245 81/99/246 85/104/247
f 85/104/247 81/99/246 83/102/248
s 53
f 89/107/249 90/108/250 97/110/251
f 97/110/251 90/108/250 98/109/252
s 54
f 90/108/253 91/111/254 98/109/255
f 98/109/255 91/111/254 99/112/256
s 55
f 91/111/257 92/113/258 99/112/259
f 99/112/259 92/113/258 100/114/260
s 56
f 92/113/261 93/115/262 100/114/263
f 100/114/263 93/115/262 101/116/264
s 57
f 93/115/265 94/117/266 101/116/267
f 101/116/267 94/117/266 102/118/268
s 58
f 94/117/269 95/119/270 102/118/271
f 102/118/271 95/119/270 103/120/272
s 59
f 95/119/273 96/121/274 103/120/275
f 103/120/275 96/121/274 104/122/276
s 60
f 96/121/277 89/107/278 104/122/279
f 104/122/279 89/107/278 97/110/280
s 61
f 90/108/281 89/107/282 105/123/283
f 91/111/284 90/108/281 105/123/283
f 92/113/285 91/111/284 105/123/283
f 93/115/286 92/113/285 105/123/283
f 94/117/287 93/115/286 105/123/283
f 95/119/288 94/117/287 105/123/283
f 96/121/289 95/119/288 105/123/283
f 89/107/282 96/121/289 105/123/283
s 62
f 97/110/290 98/109/291 106/124/292
f 98/109/291 99/112/293 106/124/292
f 99/112/293 100/114/294 106/124/292
f 100/114/294 101/116/295 106/124/292
f 101/116/295 102/118/296 106/124/292
f 102/118/296 103/120/297 106/124/292
f 103/120/297 104/122/298 106/124/292
f 104/122/298 97/110/290 106/124/292
