# This file uses centimeters as units for non-parametric coordinates.

mtllib modelHead2.mtl
g default
v -0.500000 -0.500000 0.500000
v 0.500000 -0.500000 0.500000
v -0.500000 0.500000 0.500000
v 0.500000 0.500000 0.500000
v -0.500000 0.500000 -0.500000
v 0.500000 0.500000 -0.500000
v -0.500000 -0.500000 -0.500000
v 0.500000 -0.500000 -0.500000
vt -0.000567 0.020220
vt 0.498450 0.020220
vt 0.498450 0.519237
vt -0.000567 0.519237
vt 0.043200 0.608571
vt 0.372680 0.608571
vt 0.372680 0.938051
vt 0.043200 0.938051
vt 0.225892 0.530411
vt 0.165071 0.530411
vt 0.165071 0.469589
vt 0.225892 0.469589
vt 0.163996 0.530411
vt 0.103175 0.530411
vt 0.103175 0.469589
vt 0.163996 0.469589
vt 0.500071 0.020512
vt 1.000162 0.020512
vt 1.000162 0.520604
vt 0.500071 0.520604
vt 0.498968 0.020512
vt 0.999059 0.020512
vt 0.999059 0.520604
vt 0.498968 0.520604
vn 0.000000 0.000000 1.000000
vn 0.000000 0.000000 1.000000
vn 0.000000 0.000000 1.000000
vn 0.000000 0.000000 1.000000
vn 0.000000 1.000000 0.000000
vn 0.000000 1.000000 0.000000
vn 0.000000 1.000000 0.000000
vn 0.000000 1.000000 0.000000
vn 0.000000 0.000000 -1.000000
vn 0.000000 0.000000 -1.000000
vn 0.000000 0.000000 -1.000000
vn 0.000000 0.000000 -1.000000
vn 0.000000 -1.000000 -0.000000
vn 0.000000 -1.000000 -0.000000
vn 0.000000 -1.000000 -0.000000
vn 0.000000 -1.000000 -0.000000
vn 1.000000 0.000000 0.000000
vn 1.000000 0.000000 0.000000
vn 1.000000 0.000000 0.000000
vn 1.000000 0.000000 0.000000
vn -1.000000 0.000000 0.000000
vn -1.000000 0.000000 0.000000
vn -1.000000 0.000000 0.000000
vn -1.000000 0.000000 0.000000
s off
g pCube1
usemtl initialShadingGroup
f 1/1/1 2/2/2 4/3/3 3/4/4
f 3/5/5 4/6/6 6/7/7 5/8/8
f 5/9/9 6/10/10 8/11/11 7/12/12
f 7/13/13 8/14/14 2/15/15 1/16/16
f 2/17/17 8/18/18 6/19/19 4/20/20
f 7/21/21 1/22/22 3/23/23 5/24/24
