# This file uses centimeters as units for non-parametric coordinates.

mtllib Transient_LeftArm.mtl
g default1
v -0.322222 -0.833333 0.322222
v 0.322222 -0.833333 0.322222
v -0.322222 0.833333 0.322222
v 0.322222 0.833333 0.322222
v -0.322222 0.833333 -0.322222
v 0.322222 0.833333 -0.322222
v -0.322222 -0.833333 -0.322222
v 0.322222 -0.833333 -0.322222
vt 0.487589 0.324869
vt 0.135387 0.324798
vt 0.259403 0.790016
vt 0.135387 0.677045
vt 0.257601 0.676326
vt 0.373338 0.681189
vt 0.257665 0.315886
vt 0.370861 0.326157
vt 0.370091 0.315886
vt 0.370091 0.207763
vt 0.020522 0.324798
vt 0.020522 0.677045
vt 0.373012 0.324869
vt 0.373012 0.675903
vt 0.135387 0.324798
vt 0.135387 0.677045
vt 0.259403 0.681189
vt 0.255078 0.677045
vt 0.487589 0.675903
vt 0.255078 0.324798
vt 0.257601 0.326157
vt 0.373338 0.790016
vt 0.257665 0.207763
vt 0.370861 0.676326
vn 0.000000 0.000000 1.000000
vn 0.000000 0.000000 1.000000
vn 0.000000 0.000000 1.000000
vn 0.000000 0.000000 1.000000
vn 0.000000 1.000000 0.000000
vn 0.000000 1.000000 0.000000
vn 0.000000 1.000000 0.000000
vn 0.000000 1.000000 0.000000
vn 0.000000 0.000000 -1.000000
vn 0.000000 0.000000 -1.000000
vn 0.000000 0.000000 -1.000000
vn 0.000000 0.000000 -1.000000
vn 0.000000 -1.000000 0.000000
vn 0.000000 -1.000000 0.000000
vn 0.000000 -1.000000 0.000000
vn 0.000000 -1.000000 0.000000
vn 1.000000 0.000000 0.000000
vn 1.000000 0.000000 0.000000
vn 1.000000 0.000000 0.000000
vn 1.000000 0.000000 0.000000
vn -1.000000 0.000000 0.000000
vn -1.000000 0.000000 0.000000
vn -1.000000 0.000000 0.000000
vn -1.000000 0.000000 0.000000
s off
g initialShadingGroup initialShadingGroup1 pCube5 polySurface1
f 1/20/1 2/2/2 4/16/3 3/18/4
f 3/3/5 4/17/6 6/6/7 5/22/8
f 5/5/9 6/24/10 8/8/11 7/21/12
f 7/7/13 8/23/14 2/10/15 1/9/16
f 2/15/17 8/11/18 6/12/19 4/4/20
f 7/13/21 1/1/22 3/19/23 5/14/24
