# This file uses centimeters as units for non-parametric coordinates.

mtllib Transient_Head.mtl
g default1
v -0.500000 -0.500000 0.500000
v 0.500000 -0.500000 0.500000
v -0.500000 0.500000 0.500000
v 0.500000 0.500000 0.500000
v -0.500000 0.500000 -0.500000
v 0.500000 0.500000 -0.500000
v -0.500000 -0.500000 -0.500000
v 0.500000 -0.500000 -0.500000
vt 0.872159 0.744616
vt 0.374832 0.994911
vt 0.626841 0.743073
vt 0.377738 0.744161
vt 0.624997 0.493080
vt 0.375003 0.494925
vt 0.623152 0.243087
vt 0.373159 0.244932
vt 0.621307 -0.006906
vt 0.371314 -0.005062
vt 0.127810 0.494089
vt 0.377810 0.494161
vt 0.871993 0.494616
vt 0.621993 0.494782
vt 0.373159 0.244932
vt 0.127738 0.744089
vt 0.623152 0.243087
vt 0.624825 0.993066
vt 0.375003 0.494925
vt 0.624997 0.493080
vt 0.372987 0.744918
vt 0.376848 0.744918
vt 0.622980 0.743073
vt 0.622159 0.744782
vn 0.000000 0.000000 1.000000
vn 0.000000 0.000000 1.000000
vn 0.000000 0.000000 1.000000
vn 0.000000 0.000000 1.000000
vn 0.000000 1.000000 0.000000
vn 0.000000 1.000000 0.000000
vn 0.000000 1.000000 0.000000
vn 0.000000 1.000000 0.000000
vn 0.000000 0.000000 -1.000000
vn 0.000000 0.000000 -1.000000
vn 0.000000 0.000000 -1.000000
vn 0.000000 0.000000 -1.000000
vn 0.000000 -1.000000 0.000000
vn 0.000000 -1.000000 0.000000
vn 0.000000 -1.000000 0.000000
vn 0.000000 -1.000000 0.000000
vn 1.000000 0.000000 0.000000
vn 1.000000 0.000000 0.000000
vn 1.000000 0.000000 0.000000
vn 1.000000 0.000000 0.000000
vn -1.000000 0.000000 0.000000
vn -1.000000 0.000000 0.000000
vn -1.000000 0.000000 0.000000
vn -1.000000 0.000000 0.000000
s off
g initialShadingGroup pCube1 polySurface1
f 1/18/1 2/2/2 4/21/3 3/23/4
f 3/3/5 4/22/6 6/6/7 5/20/8
f 5/5/9 6/19/10 8/8/11 7/17/12
f 7/7/13 8/15/14 2/10/15 1/9/16
f 2/16/17 8/11/18 6/12/19 4/4/20
f 7/13/21 1/1/22 3/24/23 5/14/24
