# This file uses centimeters as units for non-parametric coordinates.

mtllib Unicron_Arm.mtl
g default
v -0.318354 0.196852 0.318354
v 0.318354 0.196852 0.318354
v -0.318354 0.833559 0.318354
v 0.318354 0.833559 0.318354
v -0.318354 0.833559 -0.318354
v 0.318354 0.833559 -0.318354
v -0.318354 0.196852 -0.318354
v 0.318354 0.196852 -0.318354
vt 0.200062 0.178283
vt 0.250624 0.501344
vt 0.200062 0.087292
vt 0.251745 0.627592
vt 0.126151 0.751659
vt 0.329495 0.216725
vt 0.200062 0.346157
vt 0.251039 0.876548
vt 0.200062 0.475590
vt 0.329495 0.475590
vt 0.376886 0.502688
vt 0.376886 0.627592
vt 0.070629 0.178283
vt 0.070629 0.307715
vt 0.329495 0.346157
vt 0.251745 0.502688
vt 0.126151 0.876548
vt 0.125982 0.501344
vt 0.251039 0.751659
vt 0.200062 0.216725
vt 0.250624 0.626268
vt 0.329495 0.087292
vt 0.125982 0.626268
vt 0.200062 0.307715
vn 0.000000 0.000000 1.000000
vn 0.000000 0.000000 1.000000
vn 0.000000 0.000000 1.000000
vn 0.000000 0.000000 1.000000
vn 0.000000 1.000000 0.000000
vn 0.000000 1.000000 0.000000
vn 0.000000 1.000000 0.000000
vn 0.000000 1.000000 0.000000
vn 0.000000 0.000000 -1.000000
vn 0.000000 0.000000 -1.000000
vn 0.000000 0.000000 -1.000000
vn 0.000000 0.000000 -1.000000
vn 0.000000 -1.000000 0.000000
vn 0.000000 -1.000000 0.000000
vn 0.000000 -1.000000 0.000000
vn 0.000000 -1.000000 0.000000
vn 1.000000 0.000000 0.000000
vn 1.000000 0.000000 0.000000
vn 1.000000 0.000000 0.000000
vn 1.000000 0.000000 0.000000
vn -1.000000 0.000000 0.000000
vn -1.000000 0.000000 0.000000
vn -1.000000 0.000000 0.000000
vn -1.000000 0.000000 0.000000
s off
g pCube3
usemtl lambert4SG
f 1/18/1 2/2/2 4/21/3 3/23/4
f 3/3/5 4/22/6 6/6/7 5/20/8
f 5/5/9 6/19/10 8/8/11 7/17/12
f 7/7/13 8/15/14 2/10/15 1/9/16
f 2/16/17 8/11/18 6/12/19 4/4/20
f 7/13/21 1/1/22 3/24/23 5/14/24
g default
v -0.177510 -0.192866 0.177510
v 0.177510 -0.192866 0.177510
v -0.177510 0.192866 0.177510
v 0.177510 0.192866 0.177510
v -0.177510 0.192866 -0.177510
v 0.177510 0.192866 -0.177510
v -0.177510 -0.192866 -0.177510
v 0.177510 -0.192866 -0.177510
vt 0.473707 0.848812
vt 0.505551 0.822675
vt 0.473707 0.860724
vt 0.485619 0.860724
vt 0.379556 0.822818
vt 0.485619 0.872637
vt 0.473707 0.884549
vt 0.505123 0.946890
vt 0.473707 0.896461
vt 0.485619 0.896461
vt 0.497531 0.848812
vt 0.497531 0.860724
vt 0.461795 0.848812
vt 0.461795 0.860724
vt 0.485619 0.884549
vt 0.485619 0.848812
vt 0.379556 0.946890
vt 0.379984 0.822675
vt 0.505123 0.822818
vt 0.473707 0.872637
vt 0.505551 0.946748
vt 0.485619 0.860724
vt 0.379984 0.946748
vt 0.473707 0.860724
vn 0.000000 0.000000 1.000000
vn 0.000000 0.000000 1.000000
vn 0.000000 0.000000 1.000000
vn 0.000000 0.000000 1.000000
vn 0.000000 1.000000 0.000000
vn 0.000000 1.000000 0.000000
vn 0.000000 1.000000 0.000000
vn 0.000000 1.000000 0.000000
vn 0.000000 0.000000 -1.000000
vn 0.000000 0.000000 -1.000000
vn 0.000000 0.000000 -1.000000
vn 0.000000 0.000000 -1.000000
vn 0.000000 -1.000000 0.000000
vn 0.000000 -1.000000 0.000000
vn 0.000000 -1.000000 0.000000
vn 0.000000 -1.000000 0.000000
vn 1.000000 0.000000 0.000000
vn 1.000000 0.000000 0.000000
vn 1.000000 0.000000 0.000000
vn 1.000000 0.000000 0.000000
vn -1.000000 0.000000 0.000000
vn -1.000000 0.000000 0.000000
vn -1.000000 0.000000 0.000000
vn -1.000000 0.000000 0.000000
s off
g pCube4
usemtl lambert5SG
f 9/42/25 10/26/26 12/45/27 11/47/28
f 11/27/29 12/46/30 14/30/31 13/44/32
f 13/29/33 14/43/34 16/32/35 15/41/36
f 15/31/37 16/39/38 10/34/39 9/33/40
f 10/40/41 16/35/42 14/36/43 12/28/44
f 15/37/45 9/25/46 11/48/47 13/38/48
g default
v -0.318354 -0.861946 0.318354
v 0.318354 -0.861946 0.318354
v -0.318354 0.047861 0.318354
v 0.318354 0.047861 0.318354
v -0.318354 0.047861 -0.318354
v 0.318354 0.047861 -0.318354
v -0.318354 -0.861946 -0.318354
v 0.318354 -0.861946 -0.318354
vt 0.532410 0.248671
vt 0.657911 0.248018
vt 0.200062 0.087292
vt 0.659330 0.372746
vt 0.532843 0.500493
vt 0.329495 0.216725
vt 0.548227 0.642877
vt 0.657732 0.625382
vt 0.548227 0.737427
vt 0.642778 0.737427
vt 0.784471 0.247842
vt 0.784471 0.372746
vt 0.409745 0.248671
vt 0.409745 0.371335
vt 0.642778 0.642877
vt 0.659330 0.247842
vt 0.532843 0.625382
vt 0.533269 0.248018
vt 0.657732 0.500493
vt 0.200062 0.216725
vt 0.657911 0.372943
vt 0.329495 0.087292
vt 0.533269 0.372943
vt 0.532410 0.371335
vn 0.000000 0.000000 1.000000
vn 0.000000 0.000000 1.000000
vn 0.000000 0.000000 1.000000
vn 0.000000 0.000000 1.000000
vn 0.000000 1.000000 0.000000
vn 0.000000 1.000000 0.000000
vn 0.000000 1.000000 0.000000
vn 0.000000 1.000000 0.000000
vn 0.000000 0.000000 -1.000000
vn 0.000000 0.000000 -1.000000
vn 0.000000 0.000000 -1.000000
vn 0.000000 0.000000 -1.000000
vn 0.000000 -1.000000 0.000000
vn 0.000000 -1.000000 0.000000
vn 0.000000 -1.000000 0.000000
vn 0.000000 -1.000000 0.000000
vn 1.000000 0.000000 0.000000
vn 1.000000 0.000000 0.000000
vn 1.000000 0.000000 0.000000
vn 1.000000 0.000000 0.000000
vn -1.000000 0.000000 0.000000
vn -1.000000 0.000000 0.000000
vn -1.000000 0.000000 0.000000
vn -1.000000 0.000000 0.000000
s off
g pasted__pCube3 group
usemtl pasted__lambert4SG
f 17/66/49 18/50/50 20/69/51 19/71/52
f 19/51/53 20/70/54 22/54/55 21/68/56
f 21/53/57 22/67/58 24/56/59 23/65/60
f 23/55/61 24/63/62 18/58/63 17/57/64
f 18/64/65 24/59/66 22/60/67 20/52/68
f 23/61/69 17/49/70 19/72/71 21/62/72
