# This file uses centimeters as units for non-parametric coordinates.

mtllib Unicorn_Torso.mtl
g default
v -0.642384 -0.876438 0.500000
v 0.642384 -0.876438 0.500000
v -0.642384 0.876438 0.500000
v 0.642384 0.876438 0.500000
v -0.642384 0.876438 -0.500000
v 0.642384 0.876438 -0.500000
v -0.642384 -0.876438 -0.500000
v 0.642384 -0.876438 -0.500000
vt 0.354580 0.555648
vt 0.644953 0.554410
vt 0.081689 0.430851
vt 0.645296 0.943595
vt 0.355283 0.479959
vt 0.211121 0.560284
vt 0.081689 0.689716
vt 0.644620 0.091330
vt 0.081689 0.819149
vt 0.211121 0.819149
vt 0.718949 0.555924
vt 0.718949 0.943595
vt 0.281161 0.555648
vt 0.281161 0.943572
vt 0.211121 0.689716
vt 0.645296 0.555924
vt 0.355283 0.091330
vt 0.354850 0.554410
vt 0.644620 0.479959
vt 0.081689 0.560284
vt 0.644953 0.943701
vt 0.211121 0.430851
vt 0.354850 0.943701
vt 0.354580 0.943572
vn 0.000000 0.000000 1.000000
vn 0.000000 0.000000 1.000000
vn 0.000000 0.000000 1.000000
vn 0.000000 0.000000 1.000000
vn 0.000000 1.000000 0.000000
vn 0.000000 1.000000 0.000000
vn 0.000000 1.000000 0.000000
vn 0.000000 1.000000 0.000000
vn 0.000000 0.000000 -1.000000
vn 0.000000 0.000000 -1.000000
vn 0.000000 0.000000 -1.000000
vn 0.000000 0.000000 -1.000000
vn 0.000000 -1.000000 0.000000
vn 0.000000 -1.000000 0.000000
vn 0.000000 -1.000000 0.000000
vn 0.000000 -1.000000 0.000000
vn 1.000000 0.000000 0.000000
vn 1.000000 0.000000 0.000000
vn 1.000000 0.000000 0.000000
vn 1.000000 0.000000 0.000000
vn -1.000000 0.000000 0.000000
vn -1.000000 0.000000 0.000000
vn -1.000000 0.000000 0.000000
vn -1.000000 0.000000 0.000000
s off
g pCube1
usemtl initialShadingGroup
f 1/18/1 2/2/2 4/21/3 3/23/4
f 3/3/5 4/22/6 6/6/7 5/20/8
f 5/5/9 6/19/10 8/8/11 7/17/12
f 7/7/13 8/15/14 2/10/15 1/9/16
f 2/16/17 8/11/18 6/12/19 4/4/20
f 7/13/21 1/1/22 3/24/23 5/14/24
g default
v -0.644444 -0.032466 -0.502259
v 0.644444 -0.032466 -0.502259
v -0.644444 0.875645 -0.502259
v 0.644444 0.875645 -0.502259
v -0.644444 0.875645 -0.704850
v 0.644444 0.875645 -0.704850
v -0.644444 -0.032466 -0.704850
v 0.644444 -0.032466 -0.704850
vt 0.719093 0.745251
vt 0.288655 0.113789
vt 0.050868 0.250000
vt 0.281669 0.929278
vt 0.355419 0.479734
vt 0.300868 0.500000
vt 0.355938 0.269496
vt 0.644379 0.276829
vt 0.355938 0.276782
vt 0.643713 0.276782
vt 0.354796 0.746018
vt 0.354796 0.929278
vt 0.645835 0.745251
vt 0.645835 0.931512
vt 0.643713 0.269496
vt 0.281669 0.746018
vt 0.355419 0.276829
vt 0.038655 0.113789
vt 0.644379 0.479734
vt 0.050868 0.500000
vt 0.288655 0.363789
vt 0.300868 0.250000
vt 0.038655 0.363789
vt 0.719093 0.931512
vn 0.000000 0.000000 1.000000
vn 0.000000 0.000000 1.000000
vn 0.000000 0.000000 1.000000
vn 0.000000 0.000000 1.000000
vn 0.000000 1.000000 0.000000
vn 0.000000 1.000000 0.000000
vn 0.000000 1.000000 0.000000
vn 0.000000 1.000000 0.000000
vn 0.000000 0.000000 -1.000000
vn 0.000000 0.000000 -1.000000
vn 0.000000 0.000000 -1.000000
vn 0.000000 0.000000 -1.000000
vn 0.000000 -1.000000 0.000000
vn 0.000000 -1.000000 0.000000
vn 0.000000 -1.000000 0.000000
vn 0.000000 -1.000000 0.000000
vn 1.000000 0.000000 0.000000
vn 1.000000 0.000000 0.000000
vn 1.000000 0.000000 0.000000
vn 1.000000 0.000000 0.000000
vn -1.000000 0.000000 0.000000
vn -1.000000 0.000000 0.000000
vn -1.000000 0.000000 0.000000
vn -1.000000 0.000000 0.000000
s off
g pCube2
usemtl initialShadingGroup
f 9/42/25 10/26/26 12/45/27 11/47/28
f 11/27/29 12/46/30 14/30/31 13/44/32
f 13/29/33 14/43/34 16/32/35 15/41/36
f 15/31/37 16/39/38 10/34/39 9/33/40
f 10/40/41 16/35/42 14/36/43 12/28/44
f 15/37/45 9/25/46 11/48/47 13/38/48
