# This file uses centimeters as units for non-parametric coordinates.

mtllib AnywhereDoor.mtl
g default
v -1.358819 -2.213889 0.109594
v 1.262103 -2.213889 0.109594
v -1.358819 2.213889 0.109594
v 1.262103 2.213889 0.109594
v -1.358819 2.213889 -0.265685
v 1.262103 2.213889 -0.265685
v -1.358819 -2.213889 -0.265685
v 1.262103 -2.213889 -0.265685
vt -0.004430 0.008802
vt 0.894897 0.008802
vt 0.894897 0.908128
vt -0.004430 0.908128
vt -1.097531 0.001992
vt -0.768051 0.001992
vt -0.768051 0.331472
vt -1.097531 0.331472
vt 0.891831 0.908128
vt -0.007495 0.908128
vt -0.007495 0.008802
vt 0.891831 0.008802
vt -0.431236 0.331472
vt -0.760716 0.331472
vt -0.760716 0.001992
vt -0.431236 0.001992
vt -0.481762 0.664740
vt -0.481762 0.335260
vt -0.152283 0.335260
vt -0.152283 0.664740
vt -0.487585 0.335260
vt -0.487585 0.664740
vt -0.817065 0.664740
vt -0.817065 0.335260
vn 0.000000 0.000000 1.000000
vn 0.000000 0.000000 1.000000
vn 0.000000 0.000000 1.000000
vn 0.000000 0.000000 1.000000
vn 0.000000 1.000000 0.000000
vn 0.000000 1.000000 0.000000
vn 0.000000 1.000000 0.000000
vn 0.000000 1.000000 0.000000
vn 0.000000 0.000000 -1.000000
vn 0.000000 0.000000 -1.000000
vn 0.000000 0.000000 -1.000000
vn 0.000000 0.000000 -1.000000
vn 0.000000 -1.000000 0.000000
vn 0.000000 -1.000000 0.000000
vn 0.000000 -1.000000 0.000000
vn 0.000000 -1.000000 0.000000
vn 1.000000 0.000000 0.000000
vn 1.000000 0.000000 0.000000
vn 1.000000 0.000000 0.000000
vn 1.000000 0.000000 0.000000
vn -1.000000 0.000000 0.000000
vn -1.000000 0.000000 0.000000
vn -1.000000 0.000000 0.000000
vn -1.000000 0.000000 0.000000
s off
g pCube1
usemtl initialShadingGroup
f 1/1/1 2/2/2 4/3/3 3/4/4
f 3/5/5 4/6/6 6/7/7 5/8/8
f 5/9/9 6/10/10 8/11/11 7/12/12
f 7/13/13 8/14/14 2/15/15 1/16/16
f 2/17/17 8/18/18 6/19/19 4/20/20
f 7/21/21 1/22/22 3/23/23 5/24/24
