# This file uses centimeters as units for non-parametric coordinates.

mtllib Chair.mtl
g default
v 0.415022 0.886808 0.500000
v 0.505559 0.886810 0.500000
v 0.415022 1.014987 0.499999
v 0.505559 1.014988 0.500000
v 0.415022 1.019077 0.406482
v 0.505560 1.019077 0.406482
v 0.415022 1.026371 -0.412527
v 0.505560 1.026370 -0.412526
v 0.415022 1.027161 -0.503791
v 0.505559 1.027162 -0.503790
v 0.415022 0.875178 -0.500000
v 0.505559 0.875179 -0.500000
v 0.415023 0.878789 -0.406482
v 0.505560 0.878789 -0.406481
v 0.415022 0.890930 0.406483
v 0.505560 0.890930 0.406483
v 0.415022 0.012808 -0.500000
v 0.505559 0.012808 -0.500000
v 0.505560 0.012808 -0.406482
v 0.415023 0.012808 -0.406482
v 0.415022 0.012808 0.406482
v 0.505560 0.012808 0.406482
v 0.505559 0.012808 0.500000
v 0.415022 0.012808 0.500000
v 0.415023 1.597213 -0.519600
v 0.415022 1.579972 -0.611515
v 0.505560 1.597213 -0.519600
v 0.505559 1.579972 -0.611515
v 0.415023 2.270108 -0.645815
v 0.415022 2.252867 -0.737731
v 0.505560 2.270108 -0.645816
v 0.505559 2.252867 -0.737731
v 0.005559 0.822180 0.499999
v 0.005559 0.950380 0.499999
v 0.005559 0.816365 -0.500000
v 0.005559 1.579972 -0.611515
v 0.005559 2.252867 -0.737731
v 0.005559 0.966093 -0.500001
v 0.005559 2.270108 -0.645816
v 0.005559 1.597213 -0.519600
v 0.416366 0.953277 0.500000
v 0.416366 0.825088 0.500001
v 0.416366 0.816365 -0.500000
v 0.416366 0.967220 -0.501895
v 0.418393 0.821989 0.000637
v 0.005559 0.819273 -0.000000
v 0.415022 0.884858 -0.000000
v 0.416912 0.960766 0.000233
v 0.415022 1.022722 -0.003023
v 0.005559 0.958236 0.000000
v -0.403904 1.014988 0.500000
v -0.405247 0.953278 0.500000
v -0.403904 0.886809 0.500000
v -0.494441 0.886808 0.500000
v -0.494441 1.014988 0.500001
v -0.494442 1.019076 0.406482
v -0.403904 1.019076 0.406482
v -0.403904 1.026371 -0.412526
v -0.403904 1.022724 -0.003022
v -0.494442 1.026371 -0.412526
v -0.403904 2.252867 -0.737731
v 0.005559 2.252866 -0.737731
v 0.005559 2.270107 -0.645815
v -0.403904 2.270107 -0.645815
v -0.494442 2.270107 -0.645816
v -0.494441 2.252866 -0.737731
v -0.403904 0.875179 -0.500000
v -0.405247 0.816367 -0.500000
v -0.403904 1.027162 -0.503790
v -0.494441 1.027162 -0.503790
v -0.494441 0.875179 -0.500000
v -0.403904 0.012808 -0.500000
v -0.494441 0.012808 -0.500000
v -0.494442 0.012806 -0.406482
v -0.403904 0.012808 -0.406482
v -0.494442 0.890930 0.406483
v -0.403904 0.890928 0.406482
v -0.403904 0.884859 0.000000
v -0.403905 0.878789 -0.406482
v -0.494442 0.878789 -0.406482
v -0.407274 0.821990 0.000637
v -0.403904 0.012808 0.406482
v -0.494442 0.012808 0.406482
v -0.494441 0.012808 0.500000
v -0.403904 0.012808 0.500000
v -0.494442 1.597213 -0.519600
v -0.403904 1.597213 -0.519600
v -0.494441 1.579971 -0.611515
v -0.403904 1.579971 -0.611515
v 0.005559 1.579970 -0.611515
v 0.005559 1.597213 -0.519600
v -0.405794 0.960766 0.000234
v 0.005559 0.950381 0.500000
v 0.005559 0.822181 0.500000
v -0.405248 0.825089 0.500000
v 0.005559 0.816367 -0.500000
v 0.005559 0.966094 -0.500000
v -0.405248 0.967221 -0.501895
v 0.005559 0.819274 0.000000
v 0.005559 0.958238 0.000000
vt 0.832959 0.000673
vt 0.615442 0.625963
vt 0.906580 0.000006
vt 0.832960 0.000006
vt 0.906580 0.076028
vt 0.832960 0.076028
vt 0.832955 0.741952
vt 0.832957 0.408990
vt 0.906575 0.741952
vt 0.832960 1.000000
vt 0.500005 0.999997
vt 0.500006 0.925168
vt 0.832961 0.925170
vt 0.906581 0.925171
vt 0.906580 1.000000
vt 0.832954 0.816158
vt 0.479904 0.551847
vt 0.520096 0.551846
vt 0.832953 0.813867
vt 0.832948 0.818357
vt 0.906569 0.818358
vt 0.906569 0.742315
vt 0.832949 0.742315
vt 0.906579 0.076694
vt 0.832959 0.076694
vt 0.832957 0.407250
vt 0.832954 0.737805
vt 0.906574 0.737805
vt 0.832954 0.081267
vt 0.906574 0.081267
vt 0.906574 0.005224
vt 0.832954 0.005224
vt 0.823577 0.000000
vt 0.832958 0.826044
vt 0.520096 0.619139
vt 0.832957 0.900874
vt 0.500002 0.900871
vt 0.500003 0.826042
vt 0.834053 0.000328
vt 0.500005 0.000340
vt 0.500004 0.001008
vt 0.834051 0.000994
vt 0.834045 0.814173
vt 0.499998 0.814170
vt 0.499999 0.813391
vt 0.834046 0.814928
vt 0.500001 0.407589
vt 0.835697 0.407060
vt 0.500002 0.406865
vt 0.834493 0.406665
vt 0.167050 0.000668
vt 0.167051 0.000001
vt 0.093430 -0.000000
vt 0.384558 0.625963
vt 0.167050 0.076022
vt 0.093430 0.076022
vt 0.167045 0.741947
vt 0.093425 0.741946
vt 0.167048 0.408985
vt 0.167051 0.999995
vt 0.167051 0.925166
vt 0.500006 0.925168
vt 0.500005 0.999997
vt 0.093430 0.999994
vt 0.093431 0.925166
vt 0.167045 0.816152
vt 0.167044 0.813862
vt 0.520096 0.551846
vt 0.520096 0.619139
vt 0.167039 0.818352
vt 0.167039 0.742310
vt 0.093419 0.742309
vt 0.093418 0.818352
vt 0.093429 0.076688
vt 0.093424 0.737800
vt 0.167044 0.737800
vt 0.167047 0.407245
vt 0.167049 0.076689
vt 0.167044 0.081262
vt 0.167045 0.005219
vt 0.093424 0.005219
vt 0.093424 0.081261
vt 0.167048 0.826039
vt 0.895124 -0.000000
vt 0.479904 0.619139
vt 0.167048 0.900869
vt 0.500002 0.900871
vt 0.500003 0.826042
vt 0.165957 0.000989
vt 0.500004 0.001007
vt 0.500005 0.000340
vt 0.165958 0.000322
vt 0.165952 0.814923
vt 0.499999 0.813391
vt 0.499998 0.814170
vt 0.165951 0.814168
vt 0.164306 0.407054
vt 0.500001 0.407589
vt 0.165511 0.406659
vt 0.500002 0.406865
vt 0.500000 0.918004
vt 0.500000 0.081996
vt 1.000000 0.081996
vt 1.000000 0.918005
vt 0.500000 0.918003
vt 0.000000 0.918003
vt 0.000000 0.081996
vt 0.500000 0.081996
vt -0.000000 0.081996
vt 0.500000 0.081996
vt 0.500000 0.918006
vt -0.000000 0.918006
vt 1.000000 0.081995
vt 1.000000 0.918006
vt 0.500000 0.918005
vt 0.500000 0.081994
vt 0.425611 1.000000
vt 0.425599 0.500526
vt 0.581461 0.499423
vt 0.581461 0.998896
vt 0.574389 0.000000
vt 0.581459 0.499423
vt 0.425597 0.500526
vt 0.418540 0.001104
vt 0.091429 0.127901
vt 0.001089 0.127899
vt 0.001089 0.000000
vt 0.091429 0.000001
vt 0.091428 0.999999
vt 0.001087 0.999999
vt 0.908572 0.127901
vt 0.908572 0.000001
vt 0.998913 0.000002
vt 0.998912 0.127902
vt 0.998911 1.000000
vt 0.908571 1.000000
vt 0.617620 0.667407
vt 0.550253 0.670026
vt 0.550041 0.629554
vt 0.548221 0.266356
vt 0.605042 0.265565
vt 0.606292 0.224073
vt 0.549457 0.224864
vt 0.999423 0.620619
vt 1.000000 0.662086
vt 0.993829 0.218680
vt 0.994406 0.260146
vt 0.305799 0.721203
vt 0.297587 0.680554
vt 0.008212 0.781320
vt 0.000000 0.740671
vt 0.643698 0.667044
vt 0.576820 0.668816
vt 0.576820 0.224484
vt 0.633660 0.223692
vt 0.449959 0.629554
vt 0.449747 0.670026
vt 0.382381 0.667408
vt 0.394958 0.265565
vt 0.451779 0.266356
vt 0.393708 0.224073
vt 0.450543 0.224864
vt -0.000000 0.662086
vt 0.000576 0.620620
vt 0.005594 0.260146
vt 0.006171 0.218680
vt 0.702414 0.680554
vt 0.694201 0.721203
vt 1.000000 0.740671
vt 0.991788 0.781320
vt 0.423181 0.668816
vt 0.356303 0.667045
vt 0.366341 0.223692
vt 0.423181 0.224483
vt 0.408190 1.000000
vt 0.408190 0.500000
vt 0.590422 0.500000
vt 0.591809 1.000000
vt 0.591810 -0.000000
vt 0.590424 0.500000
vt 0.408191 0.500000
vt 0.408191 0.000000
vt 0.479904 0.551846
vt 0.520097 1.000000
vt 0.479904 1.000000
vt 0.479904 0.302857
vt 0.520096 0.302857
vt 0.479903 0.000000
vt 0.520096 -0.000000
vt 0.479904 0.619139
vt 0.520096 1.000000
vt 0.479904 1.000000
vt 0.479904 0.302856
vt 0.520096 0.302856
vt 0.479904 0.000000
vt 0.520096 -0.000000
vt 0.895124 0.458974
vt 0.823577 0.458974
vt 0.895124 1.000000
vt 0.823577 1.000000
vt 0.176423 0.000000
vt 0.176423 0.458973
vt 0.104876 0.458973
vt 0.104876 0.000000
vt 0.176423 0.999999
vt 0.104876 0.999999
vn 0.000001 0.000001 1.000000
vn 0.000001 0.000001 1.000000
vn -0.000002 0.000005 1.000000
vn -0.000002 0.000005 1.000000
vn -0.000007 0.999045 0.043685
vn -0.000007 0.999045 0.043685
vn -0.000006 0.999922 0.012473
vn -0.000006 0.999922 0.012473
vn -0.000006 0.999960 0.008905
vn -0.000006 0.999960 0.008905
vn -0.000006 0.999960 0.008905
vn -0.000000 0.982859 -0.184361
vn -0.000000 0.982859 -0.184361
vn -0.000000 0.982859 -0.184361
vn -0.000000 0.982859 -0.184361
vn -0.000000 0.982859 -0.184358
vn -0.000000 0.982859 -0.184358
vn 0.000006 -0.156276 -0.987713
vn 0.000006 -0.156283 -0.987712
vn 0.000000 -0.003737 -0.999993
vn 0.000000 -0.003736 -0.999993
vn 0.000000 -1.000000 -0.000000
vn 0.000000 -1.000000 -0.000000
vn 0.000000 -1.000000 -0.000000
vn 0.000000 -1.000000 -0.000000
vn 0.000007 -0.999888 0.014932
vn 0.000007 -0.999888 0.014932
vn 0.000007 -0.999888 0.014932
vn 0.000007 -0.999888 0.014932
vn 0.000007 -0.999888 0.014932
vn 0.000000 -1.000000 0.000000
vn 0.000000 -1.000000 0.000000
vn 0.000000 -1.000000 0.000000
vn 0.000000 -1.000000 0.000000
vn 1.000000 -0.000000 -0.000002
vn 1.000000 -0.000000 -0.000004
vn 1.000000 -0.000001 -0.000004
vn 1.000000 -0.000001 -0.000001
vn 1.000000 -0.000001 0.000000
vn 1.000000 -0.000000 0.000001
vn 1.000000 -0.000000 0.000003
vn 1.000000 0.000000 0.000003
vn 0.000000 0.000000 -1.000000
vn 0.000000 0.000000 -1.000000
vn 1.000000 0.000000 -0.000004
vn 1.000000 0.000000 -0.000004
vn -0.000002 -0.000001 1.000000
vn -0.000002 -0.000001 1.000000
vn -0.000002 -0.000001 1.000000
vn -0.000002 -0.000001 1.000000
vn -1.000000 0.000000 0.000009
vn -1.000000 0.000000 0.000009
vn -1.000000 0.000000 0.000009
vn -1.000000 0.000000 0.000009
vn 0.000002 0.000001 -1.000000
vn 0.000002 0.000001 -1.000000
vn 0.000002 0.000001 -1.000000
vn 0.000002 0.000001 -1.000000
vn 1.000000 -0.000000 0.000003
vn 1.000000 -0.000000 0.000003
vn 0.000002 0.000000 1.000000
vn 0.000002 0.000000 1.000000
vn -1.000000 -0.000000 -0.000005
vn -1.000000 -0.000000 -0.000005
vn -1.000000 -0.000000 -0.000005
vn -1.000000 -0.000000 -0.000005
vn -0.000004 0.184356 0.982860
vn -0.000004 0.184356 0.982860
vn -0.000002 0.184356 0.982860
vn -0.000001 0.184356 0.982860
vn 1.000000 -0.000001 -0.000004
vn 1.000000 -0.000001 -0.000004
vn 0.000002 -0.185253 -0.982691
vn 0.000005 -0.187477 -0.982269
vn 0.000001 -0.184356 -0.982860
vn 0.000001 -0.184356 -0.982860
vn 0.000001 -0.184356 -0.982860
vn 0.000000 0.184356 0.982860
vn -0.000001 0.184356 0.982860
vn 1.000000 -0.000001 -0.000004
vn 1.000000 -0.000001 -0.000004
vn 0.000004 -0.184356 -0.982860
vn -1.000000 0.000001 0.000007
vn -1.000000 0.000001 0.000007
vn -1.000000 0.000001 0.000007
vn -1.000000 0.000001 0.000007
vn -0.000001 0.184356 0.982860
vn -0.000001 0.184356 0.982860
vn 0.000000 -0.982858 0.184363
vn 0.000000 -0.982858 0.184363
vn 0.000000 -0.982858 0.184363
vn 0.000000 -0.982858 0.184363
vn -0.000002 0.000005 1.000000
vn -0.000002 0.000005 1.000000
vn -0.000002 0.000005 1.000000
vn -0.000002 0.000005 1.000000
vn -0.002296 -0.006306 -0.999978
vn -0.002296 -0.006306 -0.999977
vn -0.002296 -0.006306 -0.999978
vn -0.002296 -0.006306 -0.999978
vn 0.006822 -0.999959 0.006024
vn 0.006822 -0.999959 0.006024
vn 0.006822 -0.999959 0.006024
vn 0.006822 -0.999959 0.006024
vn 0.003290 -0.999958 0.008518
vn 0.003290 -0.999958 0.008518
vn 0.003290 -0.999958 0.008518
vn 0.003290 -0.999958 0.008518
vn -0.004418 0.999888 0.014282
vn -0.004418 0.999888 0.014282
vn -0.004418 0.999888 0.014282
vn -0.004418 0.999888 0.014282
vn -0.006603 0.999860 0.015342
vn -0.006603 0.999860 0.015342
vn -0.006603 0.999860 0.015342
vn -0.006603 0.999860 0.015342
vn 0.000003 0.000000 1.000000
vn 0.000005 -0.000000 1.000000
vn 0.000005 -0.000000 1.000000
vn 0.000003 0.000000 1.000000
vn -0.000002 0.999046 0.043678
vn -0.000000 0.999922 0.012473
vn -0.000000 0.999922 0.012473
vn -0.000002 0.999046 0.043678
vn -0.000000 0.999960 0.008906
vn -0.000000 0.999960 0.008906
vn -0.000000 0.999960 0.008906
vn 0.000000 0.982860 -0.184356
vn 0.000000 0.982860 -0.184356
vn 0.000001 0.982860 -0.184356
vn 0.000001 0.982860 -0.184356
vn -0.000004 0.982860 -0.184354
vn -0.000004 0.982860 -0.184354
vn -0.000002 -0.156280 -0.987713
vn 0.000003 -0.003737 -0.999993
vn 0.000003 -0.003737 -0.999993
vn -0.000002 -0.156280 -0.987713
vn 0.000008 -1.000000 -0.000008
vn 0.000008 -1.000000 -0.000008
vn 0.000008 -1.000000 -0.000008
vn 0.000008 -1.000000 -0.000008
vn -0.000006 -0.999889 0.014932
vn -0.000006 -0.999889 0.014932
vn -0.000006 -0.999889 0.014932
vn -0.000006 -0.999889 0.014932
vn -0.000006 -0.999889 0.014932
vn 0.000000 -1.000000 0.000000
vn 0.000000 -1.000000 0.000000
vn 0.000000 -1.000000 0.000000
vn 0.000000 -1.000000 0.000000
vn -1.000000 -0.000000 -0.000002
vn -1.000000 -0.000000 -0.000001
vn -1.000000 -0.000001 -0.000004
vn -1.000000 -0.000000 -0.000004
vn -1.000000 -0.000000 0.000001
vn -1.000000 -0.000000 0.000000
vn -1.000000 -0.000000 0.000003
vn -1.000000 -0.000001 0.000003
vn 0.000004 -0.000000 -1.000000
vn 0.000004 -0.000000 -1.000000
vn -1.000000 0.000000 -0.000004
vn -1.000000 0.000000 -0.000004
vn -0.000002 0.000000 1.000000
vn -0.000002 0.000000 1.000000
vn -0.000002 0.000000 1.000000
vn -0.000002 0.000000 1.000000
vn 1.000000 0.000000 0.000009
vn 1.000000 0.000000 0.000009
vn 1.000000 0.000000 0.000009
vn 1.000000 0.000000 0.000009
vn -0.000003 0.000001 -1.000000
vn -0.000003 0.000001 -1.000000
vn -0.000003 0.000001 -1.000000
vn -0.000003 0.000001 -1.000000
vn -1.000000 0.000000 0.000003
vn -1.000000 0.000000 0.000003
vn 0.000003 0.000000 1.000000
vn 0.000003 0.000000 1.000000
vn 1.000000 -0.000000 -0.000005
vn 1.000000 -0.000000 -0.000005
vn 1.000000 -0.000000 -0.000005
vn 1.000000 -0.000000 -0.000005
vn 0.000001 0.184356 0.982860
vn -0.000000 0.184356 0.982860
vn -0.000002 0.184356 0.982860
vn 0.000001 0.184356 0.982860
vn -1.000000 -0.000001 -0.000004
vn -1.000000 -0.000001 -0.000004
vn -0.000003 -0.187478 -0.982269
vn -0.000001 -0.185253 -0.982691
vn -0.000001 -0.184356 -0.982860
vn -0.000001 -0.184356 -0.982860
vn -0.000001 -0.184356 -0.982860
vn -0.000000 0.184356 0.982860
vn -0.000004 0.184357 0.982859
vn -1.000000 -0.000001 -0.000004
vn -1.000000 -0.000001 -0.000004
vn -0.000002 -0.184356 -0.982860
vn 1.000000 0.000001 0.000007
vn 1.000000 0.000001 0.000007
vn 1.000000 0.000001 0.000007
vn 1.000000 0.000001 0.000007
vn 0.000001 0.184356 0.982860
vn 0.000001 0.184356 0.982860
vn -0.000000 -0.982856 0.184376
vn -0.000000 -0.982856 0.184376
vn -0.000000 -0.982856 0.184376
vn -0.000000 -0.982856 0.184376
vn 0.000001 0.000001 1.000000
vn 0.000001 0.000001 1.000000
vn 0.000001 0.000001 1.000000
vn 0.000001 0.000001 1.000000
vn 0.002297 -0.006304 -0.999977
vn 0.002297 -0.006304 -0.999977
vn 0.002297 -0.006304 -0.999977
vn 0.002297 -0.006304 -0.999978
vn -0.006823 -0.999959 0.006024
vn -0.006823 -0.999959 0.006024
vn -0.006823 -0.999959 0.006024
vn -0.006823 -0.999959 0.006024
vn -0.003291 -0.999958 0.008518
vn -0.003291 -0.999958 0.008518
vn -0.003291 -0.999958 0.008518
vn -0.003291 -0.999958 0.008518
vn 0.004418 0.999888 0.014282
vn 0.004418 0.999888 0.014282
vn 0.004418 0.999888 0.014282
vn 0.004418 0.999888 0.014282
vn 0.006603 0.999860 0.015342
vn 0.006603 0.999860 0.015342
vn 0.006603 0.999860 0.015342
vn 0.006603 0.999860 0.015342
vn 1.000000 0.000000 0.000000
vn 1.000000 0.000000 0.000000
vn 1.000000 0.000000 0.000000
vn 1.000000 0.000000 0.000000
vn -1.000000 -0.000001 0.000000
vn -1.000000 -0.000001 0.000000
vn -1.000000 -0.000001 0.000000
vn -1.000000 -0.000001 0.000000
vn -1.000000 0.000001 -0.000000
vn -1.000000 0.000001 -0.000000
vn -1.000000 0.000001 -0.000000
vn -1.000000 0.000001 -0.000000
vn 1.000000 -0.000003 -0.000000
vn 1.000000 -0.000003 -0.000000
vn 1.000000 -0.000003 -0.000000
vn 1.000000 -0.000003 -0.000000
s 1
g pCube1
usemtl initialShadingGroup
f 1/125/1 2/126/2 4/127/3 3/128/4
s 2
f 3/4/5 4/3/6 6/5/7 5/6/8
f 7/7/9 49/8/10 5/6/8 6/5/7 8/9/11
s 3
f 30/10/12 37/11/13 39/12/14 29/13/15
f 29/13/15 31/14/16 32/15/17 30/10/12
s 4
f 9/17/18 10/18/19 12/35/20 11/190/21
s off
f 17/20/22 18/21/23 19/22/24 20/23/25
f 16/24/26 15/25/27 47/26/28 13/27/29 14/28/30
f 21/29/31 22/30/32 23/31/33 24/32/34
s 5
f 14/2/35 12/137/36 10/138/37 8/139/38
f 8/139/38 6/140/39 16/141/40 14/2/35
f 2/142/41 16/141/40 6/140/39 4/143/42
s 4
f 11/190/21 12/35/20 18/191/43 17/192/44
s 5
f 12/137/36 14/2/35 19/144/45 18/145/46
s off
f 14/28/47 13/27/48 20/23/49 19/22/50
f 13/27/51 11/19/52 17/20/53 20/23/54
f 15/25/55 16/24/56 22/30/57 21/29/58
s 5
f 16/141/40 2/142/41 23/146/59 22/147/60
s 1
f 2/126/2 1/125/1 24/129/61 23/130/62
s off
f 1/1/63 15/25/64 21/29/65 24/32/66
s 6
f 7/33/67 8/84/68 27/197/69 25/198/70
s 5
f 8/139/38 10/138/37 28/148/71 27/149/72
s 4
f 10/18/19 9/17/18 26/193/73 28/194/74
f 26/109/73 36/110/75 37/111/76 30/112/77
s 6
f 25/198/70 27/197/69 31/199/78 29/200/79
s 5
f 27/149/72 28/148/71 32/150/80 31/151/81
s 4
f 28/194/74 26/193/73 30/195/77 32/196/82
s off
f 7/7/83 25/34/84 26/36/85 9/16/86
s 6
f 39/101/87 40/102/88 25/103/70 29/104/79
s off
f 40/38/89 36/37/90 26/36/91 25/34/92
f 41/117/93 34/118/94 33/119/95 42/120/96
f 43/175/97 35/176/98 38/177/99 44/178/100
f 42/42/101 33/41/102 46/47/103 45/48/104
f 46/47/105 35/44/106 43/43/107 45/48/108
f 44/46/109 38/45/110 50/49/111 48/50/112
f 50/49/113 34/40/114 41/39/115 48/50/116
s 7
f 53/131/117 51/132/118 55/133/119 54/134/120
s 8
f 51/52/121 57/55/122 56/56/123 55/53/124
f 58/57/125 60/58/126 56/56/123 57/55/122 59/59/127
s 9
f 61/60/128 64/61/129 63/62/130 62/63/131
f 64/61/129 61/60/128 66/64/132 65/65/133
s 10
f 69/68/134 67/69/135 71/85/136 70/183/137
s off
f 72/70/138 75/71/139 74/72/140 73/73/141
f 76/74/142 80/75/143 79/76/144 78/77/145 77/78/146
f 82/79/147 85/80/148 84/81/149 83/82/150
s 11
f 80/54/151 60/156/152 70/157/153 71/158/154
f 60/156/152 80/54/151 76/159/155 56/160/156
f 54/161/157 55/162/158 56/160/156 76/159/155
s 10
f 67/69/135 72/184/159 73/185/160 71/85/136
s 11
f 71/158/154 73/163/161 74/164/162 80/54/151
s off
f 80/75/163 74/72/164 75/71/165 79/76/166
f 79/76/167 75/71/168 72/70/169 67/67/170
f 77/78/171 82/79/172 83/82/173 76/74/174
s 11
f 76/159/155 83/165/175 84/166/176 54/161/157
s 7
f 54/134/120 84/135/177 85/136/178 53/131/117
s off
f 53/51/179 85/80/180 82/79/181 77/78/182
s 12
f 58/201/183 87/202/184 86/203/185 60/204/186
s 11
f 60/156/152 86/167/187 88/168/188 70/157/153
s 10
f 70/183/137 88/186/189 89/187/190 69/68/134
f 89/113/190 61/114/191 62/115/192 90/116/193
s 12
f 87/202/184 64/205/194 65/206/195 86/203/185
s 11
f 86/167/187 65/169/196 66/170/197 88/168/188
s 10
f 88/186/189 66/188/198 61/189/191 89/187/190
s off
f 58/57/199 69/66/200 89/86/201 87/83/202
s 12
f 63/105/203 64/106/194 87/107/184 91/108/204
s off
f 91/88/205 87/83/206 89/86/207 90/87/208
f 95/121/209 94/122/210 93/123/211 52/124/212
f 98/179/213 97/180/214 96/181/215 68/182/216
f 95/89/217 81/97/218 99/98/219 94/90/220
f 99/98/221 81/97/222 68/96/223 96/95/224
f 98/93/225 92/99/226 100/100/227 97/94/228
f 100/100/229 92/99/230 52/92/231 93/91/232
f 67/67/233 69/66/234 51/52/235 53/51/236
f 9/16/237 11/19/238 1/1/239 3/4/240
f 98/171/241 68/172/242 95/173/243 52/174/244
f 43/152/245 44/153/246 41/154/247 42/155/248
