# This file uses centimeters as units for non-parametric coordinates.

mtllib door.mtl
g default
v 0.682159 0.133054 -0.185913
v 0.583046 0.133054 -0.380433
v 0.234153 0.133054 -0.633918
v 0.018526 0.133054 -0.668070
v -0.197102 0.133054 -0.633918
v -0.545994 0.133054 -0.380433
v -0.645107 0.133054 -0.185913
v -0.679259 0.133054 0.029715
v -0.645107 0.133054 0.245342
v -0.545994 0.133054 0.439863
v -0.391622 0.133054 0.594235
v -0.197102 0.133054 0.693348
v 0.018526 0.133054 0.727500
v 0.234153 0.133054 0.693348
v 0.583045 0.133054 0.439862
v 0.682158 0.133054 0.245342
v 0.716310 0.133054 0.029715
v 0.777804 0.291165 -0.216990
v 0.664406 0.291165 -0.439545
v 0.487785 0.291165 -0.616166
v 0.265230 0.291165 -0.729563
v 0.018526 0.291165 -0.768637
v -0.228179 0.291165 -0.729563
v -0.450734 0.291165 -0.616165
v -0.627355 0.291165 -0.439545
v -0.740752 0.291165 -0.216989
v -0.779826 0.291165 0.029715
v -0.740752 0.291165 0.276419
v -0.627355 0.291165 0.498974
v -0.450734 0.291165 0.675595
v -0.228179 0.291165 0.788992
v 0.018526 0.291165 0.828067
v 0.265230 0.291165 0.788992
v 0.487785 0.291165 0.675595
v 0.664406 0.291165 0.498974
v 0.777803 0.291165 0.276419
v 0.816877 0.291165 0.029715
v 0.854752 0.468456 -0.241992
v 0.729863 0.468456 -0.487102
v 0.535342 0.468456 -0.681622
v 0.290232 0.468456 -0.806512
v -0.253181 0.468456 -0.806512
v -0.498291 0.468456 -0.681622
v -0.692811 0.468456 -0.487102
v -0.817701 0.468456 -0.241992
v -0.860735 0.468456 0.029715
v -0.817701 0.468456 0.301421
v -0.692811 0.468456 0.546531
v -0.498291 0.468456 0.741051
v -0.253181 0.468456 0.865941
v 0.018526 0.468456 0.908975
v 0.290232 0.468456 0.865941
v 0.535342 0.468456 0.741051
v 0.729862 0.468456 0.546531
v 0.854752 0.468456 0.301421
v 0.897786 0.468456 0.029715
v 0.777804 0.660559 -0.521933
v 0.570173 0.660559 -0.729563
v 0.308544 0.660559 -0.862870
v 0.018526 0.660559 -0.908804
v -0.271493 0.660559 -0.862870
v -0.533122 0.660559 -0.729563
v -0.740752 0.660559 -0.521933
v -0.874059 0.660559 -0.260303
v -0.919993 0.660559 0.029715
v -0.874059 0.660559 0.319733
v -0.740752 0.660559 0.581362
v -0.533122 0.660559 0.788992
v -0.271493 0.660559 0.922299
v 0.018526 0.660559 0.968233
v 0.308544 0.660559 0.922299
v 0.570173 0.660559 0.788992
v 0.777803 0.660559 0.581362
v 0.911110 0.660559 0.319733
v 0.957044 0.660559 0.029715
v 0.591421 0.862744 -0.758808
v 0.319715 0.862744 -0.897250
v 0.018526 0.862744 -0.944953
v -0.282663 0.862744 -0.897249
v -0.554370 0.862744 -0.758808
v -0.769997 0.862744 -0.543181
v -0.908439 0.862744 -0.271474
v -0.956142 0.862744 0.029715
v -0.908439 0.862744 0.330904
v -0.769997 0.862744 0.602610
v -0.554370 0.862744 0.818237
v -0.282663 0.862744 0.956679
v 0.018526 0.862744 1.004382
v 0.319714 0.862744 0.956679
v 0.591421 0.862744 0.818237
v 0.807048 0.862744 0.602610
v 0.945489 0.862744 0.330904
v 0.993193 0.862744 0.029715
v 0.957045 1.070034 -0.275229
v 0.816878 1.070034 -0.550322
v 0.598562 1.070034 -0.768637
v 0.323469 1.070034 -0.908804
v 0.018526 1.070034 -0.957103
v -0.286418 1.070034 -0.908804
v -0.561511 1.070034 -0.768637
v -0.779826 1.070034 -0.550322
v -0.919993 1.070034 -0.275228
v -0.968291 1.070034 0.029715
v -0.919993 1.070034 0.334658
v -0.779826 1.070034 0.609751
v -0.286418 1.070034 0.968233
v 0.018526 1.070034 1.016532
v 0.323469 1.070034 0.968233
v 0.598562 1.070034 0.828066
v 0.816877 1.070034 0.609751
v 0.957044 1.070034 0.334658
v 1.005342 1.070034 0.029715
v 0.945490 1.277324 -0.271474
v 0.807049 1.277324 -0.543181
v 0.591421 1.277324 -0.758808
v 0.319715 1.277324 -0.897250
v 0.018526 1.277324 -0.944953
v -0.282663 1.277324 -0.897249
v -0.554370 1.277324 -0.758808
v -0.769997 1.277324 -0.543181
v -0.908439 1.277324 -0.271474
v -0.956142 1.277324 0.029715
v -0.908439 1.277324 0.330904
v -0.769997 1.277324 0.602610
v -0.554370 1.277324 0.818237
v -0.282663 1.277324 0.956679
v 0.018526 1.277324 1.004382
v 0.591421 1.277324 0.818237
v 0.807048 1.277324 0.602610
v 0.945489 1.277324 0.330904
v 0.993193 1.277324 0.029715
v 0.911110 1.479509 -0.260304
v 0.777804 1.479509 -0.521933
v 0.018526 1.479509 -0.908804
v -0.271493 1.479509 -0.862870
v -0.533122 1.479509 -0.729563
v -0.740752 1.479509 -0.521933
v -0.874059 1.479509 -0.260303
v -0.919993 1.479509 0.029715
v -0.874059 1.479509 0.319733
v -0.740752 1.479509 0.581362
v -0.533122 1.479509 0.788992
v -0.271493 1.479509 0.922299
v 0.018526 1.479509 0.968233
v 0.777803 1.479509 0.581362
v 0.911110 1.479509 0.319733
v 0.854752 1.671612 -0.241992
v 0.290232 1.671612 -0.806512
v 0.018526 1.671612 -0.849546
v -0.253181 1.671612 -0.806512
v -0.498291 1.671612 -0.681622
v -0.692811 1.671612 -0.487102
v -0.817701 1.671612 -0.241992
v -0.860735 1.671612 0.029715
v -0.817701 1.671612 0.301421
v -0.692811 1.671612 0.546531
v -0.498291 1.671612 0.741051
v -0.253181 1.671612 0.865941
v 0.018526 1.671612 0.908975
v 0.290232 1.671612 0.865941
v 0.535342 1.671612 0.741051
v 0.729862 1.671612 0.546531
v 0.854752 1.671612 0.301421
v 0.897786 1.671612 0.029715
v 0.777804 1.848903 -0.216990
v 0.265230 1.848903 -0.729563
v 0.018526 1.848903 -0.768637
v -0.450734 1.848903 -0.616165
v -0.627355 1.848903 -0.439545
v -0.740752 1.848903 -0.216989
v -0.779826 1.848903 0.029715
v -0.627355 1.848903 0.498974
v -0.450734 1.848903 0.675595
v -0.228179 1.848903 0.788992
v 0.018526 1.848903 0.828067
v 0.265230 1.848903 0.788992
v 0.487785 1.848903 0.675595
v 0.777803 1.848903 0.276419
v 0.816877 1.848903 0.029715
vt 0.098976 0.567373
vt 0.098976 0.676297
vt 0.035401 0.668159
vt 0.035401 0.551895
vt 0.098976 0.480931
vt 0.035401 0.459627
vt 0.157649 0.510019
vt 0.157649 0.588507
vt 0.183804 0.231658
vt 0.183804 0.122735
vt 0.247379 0.130872
vt 0.247379 0.247137
vt 0.314291 0.135836
vt 0.314291 0.256579
vt 0.183804 0.318100
vt 0.247379 0.339405
vt 0.247379 0.001992
vt 0.314291 0.001992
vt 0.112974 0.247137
vt 0.112974 0.126394
vt 0.176548 0.118257
vt 0.176548 0.247137
vt 0.054301 0.247137
vt 0.054301 0.137505
vt 0.112974 0.017471
vt 0.176548 0.001992
vt 0.054301 0.356769
vt 0.112974 0.367879
vt 0.001975 0.342959
vt 0.001975 0.247137
vt 0.001975 0.429401
vt 0.054301 0.455669
vt 0.379670 0.318100
vt 0.379670 0.197358
vt 0.443245 0.189220
vt 0.443245 0.318100
vt 0.379670 0.088434
vt 0.443245 0.072956
vt 0.510157 0.184256
vt 0.510157 0.318100
vt 0.320997 0.208468
vt 0.320997 0.109568
vt 0.320997 0.031080
vt 0.379670 0.001992
vt 0.663014 0.231658
vt 0.663014 0.122735
vt 0.726589 0.130872
vt 0.726589 0.247137
vt 0.793500 0.135836
vt 0.793500 0.256579
vt 0.726589 0.001992
vt 0.793500 0.001992
vt 0.862101 0.137505
vt 0.862101 0.259752
vt 0.989479 0.263710
vt 0.989479 0.392590
vt 0.922568 0.397554
vt 0.922568 0.263710
vt 0.853967 0.399222
vt 0.853967 0.263710
vt 0.922568 0.518297
vt 0.853967 0.521470
vt 0.785366 0.518297
vt 0.785366 0.397554
vt 0.222140 0.459626
vt 0.222140 0.343362
vt 0.289052 0.348326
vt 0.289052 0.469069
vt 0.222140 0.551894
vt 0.289052 0.564891
vt 0.655293 0.005166
vt 0.655293 0.125908
vt 0.586692 0.124240
vt 0.586692 0.001992
vt 0.518091 0.125908
vt 0.518091 0.005166
vt 0.586692 0.259753
vt 0.518091 0.259753
vt 0.642081 0.521470
vt 0.642081 0.387626
vt 0.710682 0.385958
vt 0.710682 0.521470
vt 0.642081 0.266884
vt 0.710682 0.263710
vt 0.779283 0.266884
vt 0.779283 0.387626
vt 0.149023 0.816692
vt 0.149023 0.682848
vt 0.217624 0.682848
vt 0.217624 0.818361
vt 0.920878 0.777703
vt 0.920878 0.656960
vt 0.989479 0.653787
vt 0.989479 0.776034
vt 0.231015 0.568848
vt 0.353263 0.568848
vt 0.350089 0.637449
vt 0.229346 0.637449
vt 0.340647 0.704361
vt 0.224382 0.704361
vt 0.295135 0.472242
vt 0.295135 0.349994
vt 0.363736 0.348326
vt 0.363736 0.469069
vt 0.430648 0.343362
vt 0.430648 0.459626
vt 0.363736 0.564891
vt 0.430648 0.551894
vt 0.359643 0.704361
vt 0.359643 0.568848
vt 0.428244 0.568848
vt 0.428244 0.702692
vt 0.501914 0.555681
vt 0.501914 0.689525
vt 0.435003 0.684561
vt 0.435003 0.555681
vt 0.508430 0.689525
vt 0.508430 0.555681
vt 0.575342 0.560645
vt 0.575342 0.689525
vt 0.581857 0.659272
vt 0.581857 0.525428
vt 0.648769 0.525428
vt 0.648769 0.654308
vt 0.655285 0.659272
vt 0.655285 0.538529
vt 0.722196 0.533565
vt 0.722196 0.649830
vt 0.785771 0.525428
vt 0.785771 0.634351
vt 0.856053 0.533565
vt 0.856053 0.649830
vt 0.792478 0.634351
vt 0.792478 0.525428
vt 0.863973 0.641692
vt 0.863973 0.525428
vt 0.927548 0.540906
vt 0.927548 0.649830
vt 0.046019 0.792965
vt 0.001975 0.706523
vt 0.038130 0.680254
vt 0.088523 0.779155
vt 0.061196 0.888787
vt 0.105886 0.888787
vt 0.122718 0.768044
vt 0.141841 0.888787
vt 0.216058 0.473437
vt 0.216058 0.569259
vt 0.163732 0.569259
vt 0.163732 0.459627
vt 0.216058 0.665081
vt 0.163732 0.678891
vt 0.526413 0.693483
vt 0.570457 0.779925
vt 0.534302 0.806193
vt 0.483909 0.707293
vt 0.436731 0.504322
vt 0.480775 0.417879
vt 0.523278 0.431690
vt 0.472886 0.530590
vt 0.557473 0.442800
vt 0.501974 0.551724
vt 0.540642 0.322058
vt 0.576597 0.322058
vt 0.340506 0.817950
vt 0.325329 0.722128
vt 0.367832 0.708318
vt 0.385196 0.817950
vt 0.391279 0.794760
vt 0.435323 0.708318
vt 0.477827 0.722128
vt 0.427434 0.821028
vt 0.725883 0.663229
vt 0.725883 0.762130
vt 0.667210 0.783264
vt 0.667210 0.674340
vt 0.048139 0.992934
vt 0.048139 0.895917
vt 0.116740 0.892744
vt 0.116740 0.988566
vt 0.122823 0.988566
vt 0.122823 0.892744
vt 0.189735 0.905740
vt 0.189735 0.998008
vt 0.914796 0.653787
vt 0.914796 0.774530
vt 0.856123 0.774530
vt 0.856123 0.664898
vt 0.731966 0.783972
vt 0.731966 0.663229
vt 0.790638 0.663229
vt 0.790638 0.772861
vt 0.815845 0.774530
vt 0.796721 0.653787
vt 0.832676 0.653787
vt 0.850040 0.763419
vt 0.576540 0.802406
vt 0.632039 0.693483
vt 0.661127 0.714616
vt 0.610735 0.813517
vt 0.616875 0.263710
vt 0.635998 0.384453
vt 0.600044 0.384453
vt 0.582680 0.274821
vt 0.616875 0.505195
vt 0.582680 0.494085
vt 0.319246 0.729452
vt 0.319246 0.815894
vt 0.260573 0.786806
vt 0.260573 0.708318
vt 0.195818 0.908760
vt 0.195818 0.822318
vt 0.254490 0.851406
vt 0.254490 0.929894
vn 0.802484 -0.536686 -0.260742
vn 0.754479 -0.531957 -0.384426
vn 0.754479 -0.531957 -0.384426
vn 0.845527 -0.488875 -0.214675
vn 0.132464 -0.531957 -0.836346
vn -0.000000 -0.536686 -0.843782
vn -0.000000 -0.536686 -0.843782
vn 0.132464 -0.531957 -0.836346
vn -0.132464 -0.531957 -0.836346
vn -0.132464 -0.531957 -0.836346
vn -0.754479 -0.531957 -0.384426
vn -0.802484 -0.536686 -0.260743
vn -0.845527 -0.488875 -0.214676
vn -0.754479 -0.531957 -0.384426
vn -0.836346 -0.531957 -0.132464
vn -0.892639 -0.449258 -0.036925
vn -0.754479 -0.531957 0.384426
vn -0.754479 -0.531957 0.384426
vn -0.754479 -0.531957 0.384426
vn -0.754479 -0.531957 0.384426
vn -0.384426 -0.531957 0.754479
vn -0.384426 -0.531957 0.754479
vn -0.310958 -0.449258 0.837539
vn -0.402086 -0.464313 0.789139
vn 0.132464 -0.531957 0.836346
vn 0.132464 -0.531957 0.836346
vn 0.132464 -0.531957 0.836346
vn 0.132464 -0.531957 0.836346
vn 0.754479 -0.531957 0.384426
vn 0.754479 -0.531957 0.384426
vn 0.754479 -0.531957 0.384426
vn 0.754479 -0.531957 0.384426
vn 0.836346 -0.531957 -0.132462
vn 0.874767 -0.464313 -0.138548
vn 0.644646 -0.410929 -0.644646
vn 0.644646 -0.410929 -0.644646
vn 0.588154 -0.329959 -0.738377
vn 0.663475 -0.345834 -0.663475
vn -0.413888 -0.410929 -0.812301
vn -0.413888 -0.410929 -0.812301
vn -0.413888 -0.410929 -0.812301
vn -0.413888 -0.410929 -0.812301
vn -0.927424 -0.369569 0.057482
vn -0.900443 -0.410929 -0.142616
vn -0.900443 -0.410929 0.142616
vn -0.909834 -0.329959 0.251651
vn -0.281126 -0.415173 0.865217
vn -0.413888 -0.410929 0.812302
vn -0.142616 -0.410929 0.900443
vn -0.142616 -0.410929 0.900443
vn 0.413888 -0.410929 0.812301
vn 0.534733 -0.415173 0.735997
vn 0.498622 -0.369568 0.784089
vn 0.331197 -0.329959 0.883988
vn 0.644646 -0.410929 0.644646
vn 0.644646 -0.410929 0.644646
vn 0.900443 -0.410929 -0.142614
vn 0.900443 -0.410929 -0.142614
vn 0.561669 -0.294766 -0.773072
vn 0.676409 -0.291447 -0.676409
vn 0.434281 -0.291447 -0.852325
vn 0.434281 -0.291447 -0.852325
vn -0.676409 -0.291447 -0.676409
vn -0.773072 -0.294766 -0.561669
vn -0.814998 -0.251583 -0.522001
vn -0.676409 -0.291447 -0.676409
vn -0.852325 -0.291447 -0.434281
vn -0.914126 -0.212233 -0.345444
vn -0.908800 -0.294766 0.295287
vn -0.944810 -0.291447 0.149643
vn -0.852325 -0.291447 0.434282
vn -0.852325 -0.291447 0.434282
vn 0.149643 -0.291447 0.944810
vn 0.244605 -0.251583 0.936416
vn 0.152273 -0.229124 0.961413
vn 0.434282 -0.291447 0.852325
vn 0.852325 -0.291447 0.434282
vn 0.852325 -0.291447 0.434282
vn 0.914126 -0.212233 0.345444
vn 0.867303 -0.229124 0.441913
vn -0.154051 -0.173899 -0.972639
vn -0.154051 -0.173899 -0.972640
vn -0.259954 -0.095967 -0.960840
vn -0.155413 -0.114082 -0.981240
vn -0.936211 -0.175999 -0.304193
vn -0.877431 -0.173899 -0.447073
vn -0.972640 -0.173899 -0.154051
vn -0.972640 -0.173899 -0.154051
vn -0.696333 -0.173899 0.696333
vn -0.578610 -0.176000 0.796389
vn -0.578610 -0.176000 0.796388
vn -0.696333 -0.173899 0.696333
vn -0.447073 -0.173899 0.877431
vn -0.447073 -0.173899 0.877431
vn 0.154051 -0.173899 0.972639
vn 0.154051 -0.173899 0.972639
vn 0.923858 -0.135074 0.358109
vn 0.885189 -0.114082 0.451026
vn 0.972640 -0.173899 0.154051
vn 0.972640 -0.173899 0.154051
vn 0.453232 -0.057792 -0.889517
vn 0.453231 -0.057792 -0.889517
vn 0.358660 0.019506 -0.933264
vn 0.453990 0.000000 -0.891007
vn -0.358660 -0.019506 -0.933264
vn -0.156173 -0.057792 -0.986038
vn -0.453232 -0.057792 -0.889517
vn -0.453991 0.000000 -0.891006
vn -0.986038 -0.057792 0.156173
vn -0.949427 -0.058510 0.308488
vn -0.933264 -0.019506 0.358660
vn -0.986038 -0.057792 0.156173
vn -0.889517 -0.057792 0.453232
vn -0.891006 0.000000 0.453991
vn -0.156173 -0.057792 0.986038
vn -0.156173 -0.057792 0.986038
vn -0.156173 -0.057792 0.986038
vn -0.156173 -0.057792 0.986038
vn 0.453232 -0.057792 0.889517
vn 0.453232 -0.057792 0.889517
vn 0.453232 -0.057792 0.889517
vn 0.453232 -0.057792 0.889517
vn 0.889517 -0.057792 0.453232
vn 0.889517 -0.057792 0.453232
vn 0.889517 0.057792 -0.453232
vn 0.889517 0.057792 -0.453232
vn 0.885189 0.114082 -0.451027
vn 0.885189 0.114082 -0.451027
vn 0.308487 0.058510 -0.949427
vn 0.453232 0.057792 -0.889517
vn 0.156173 0.057792 -0.986038
vn 0.156173 0.057792 -0.986038
vn -0.453232 0.057792 -0.889517
vn -0.453232 0.057792 -0.889517
vn -0.889517 0.057792 -0.453232
vn -0.889517 0.057792 -0.453232
vn -0.885189 0.114082 -0.451026
vn -0.832746 0.135074 -0.536926
vn -0.889517 0.057792 0.453232
vn -0.889517 0.057792 0.453232
vn 0.705925 0.057792 0.705925
vn 0.705925 0.057792 0.705925
vn 0.705925 0.057792 0.705925
vn 0.705925 0.057792 0.705925
vn 0.986038 0.057792 0.156173
vn 0.986038 0.057792 0.156173
vn 0.986038 0.057792 0.156173
vn 0.986038 0.057792 0.156173
vn 0.877431 0.173899 -0.447073
vn 0.877431 0.173899 -0.447073
vn -0.154051 0.173899 -0.972640
vn -0.154051 0.173899 -0.972640
vn -0.154051 0.173899 -0.972640
vn -0.154051 0.173899 -0.972640
vn -0.696333 0.173899 -0.696333
vn -0.796389 0.176000 -0.578610
vn -0.696333 0.173899 -0.696333
vn -0.877431 0.173899 -0.447073
vn -0.972640 0.173899 0.154051
vn -0.972640 0.173899 0.154051
vn -0.972640 0.173899 0.154051
vn -0.972640 0.173899 0.154051
vn -0.696333 0.173899 0.696333
vn -0.696333 0.173899 0.696333
vn -0.696333 0.173899 0.696333
vn -0.696333 0.173899 0.696333
vn -0.154051 0.173899 0.972639
vn -0.154051 0.173899 0.972639
vn -0.154051 0.173899 0.972639
vn -0.154051 0.173899 0.972639
vn 0.877431 0.173899 0.447073
vn 0.877431 0.173899 0.447073
vn 0.867303 0.229124 0.441913
vn 0.867303 0.229124 0.441913
vn -0.434282 0.291447 -0.852325
vn -0.434282 0.291447 -0.852325
vn -0.434282 0.291447 -0.852325
vn -0.434282 0.291447 -0.852325
vn -0.852325 0.291447 0.434282
vn -0.852325 0.291447 0.434282
vn -0.852325 0.291447 0.434282
vn -0.852325 0.291447 0.434282
vn 0.852325 0.291447 0.434281
vn 0.852325 0.291447 0.434281
vn 0.142616 0.410929 -0.900443
vn 0.142616 0.410929 -0.900443
vn 0.142616 0.410929 -0.900443
vn 0.142616 0.410929 -0.900443
vn -0.644646 0.410929 -0.644646
vn -0.644646 0.410929 -0.644646
vn -0.644646 0.410929 -0.644646
vn -0.644646 0.410929 -0.644646
vn -0.900443 0.410929 -0.142616
vn -0.900443 0.410929 -0.142616
vn -0.900443 0.410929 -0.142616
vn -0.900443 0.410929 -0.142616
vn -0.644646 0.410929 0.644646
vn -0.644646 0.410929 0.644646
vn -0.644646 0.410929 0.644646
vn -0.644646 0.410929 0.644646
vn -0.142616 0.410929 0.900443
vn -0.142616 0.410929 0.900443
vn -0.142616 0.410929 0.900443
vn -0.142616 0.410929 0.900443
vn 0.413888 0.410929 0.812301
vn 0.413888 0.410929 0.812301
vn 0.413888 0.410929 0.812301
vn 0.413888 0.410929 0.812301
vn 0.900443 0.410929 0.142616
vn 0.909742 0.415173 0.000001
vn 0.909742 0.415173 0.000001
vn 0.900443 0.410929 0.142616
vn 0.900443 0.410929 -0.142614
vn 0.900443 0.410929 -0.142614
s 1
g pSphere1
usemtl lambert2SG
f 1/139/1 2/140/2 19/141/3 18/142/4
s 2
f 3/147/5 4/148/6 22/149/7 21/150/8
f 4/148/6 5/151/9 23/152/10 22/149/7
s 3
f 6/31/11 7/29/12 26/27/13 25/32/14
f 7/29/12 8/30/15 27/23/16 26/27/13
s off
f 9/153/17 10/154/18 29/155/19 28/156/20
s 4
f 11/157/21 12/158/22 31/159/23 30/160/24
s off
f 13/165/25 14/166/26 33/167/27 32/168/28
f 15/169/29 16/170/30 36/171/31 35/172/32
s 1
f 17/143/33 1/139/1 18/142/4 37/144/34
s 5
f 19/7/35 20/8/36 40/1/37 39/5/38
s off
f 23/173/39 24/174/40 43/175/41 42/176/42
s 3
f 26/27/13 27/23/16 46/19/43 45/28/44
f 27/23/16 28/24/45 47/20/46 46/19/43
s 4
f 30/160/24 31/159/23 50/161/47 49/162/48
f 31/159/23 32/163/49 51/164/50 50/161/47
s 6
f 33/41/51 34/42/52 53/37/53 52/34/54
f 34/42/52 35/43/55 54/44/56 53/37/53
s 1
f 37/144/34 18/142/4 38/145/57 56/146/58
s 5
f 39/5/38 40/1/37 58/4/59 57/6/60
f 40/1/37 41/2/61 59/3/62 58/4/59
s 7
f 43/15/63 44/9/64 63/12/65 62/16/66
f 44/9/64 45/10/67 64/11/68 63/12/65
s 3
f 46/19/43 47/20/46 66/21/69 65/22/70
f 47/20/46 48/25/71 67/26/72 66/21/69
s 6
f 51/33/73 52/34/54 71/35/74 70/36/75
f 52/34/54 53/37/53 72/38/76 71/35/74
s 8
f 54/45/77 55/46/78 74/47/79 73/48/80
s 9
f 60/55/81 61/56/82 79/57/83 78/58/84
s 7
f 63/12/65 64/11/68 82/13/85 81/14/86
f 64/11/68 65/17/87 83/18/88 82/13/85
s 10
f 67/69/89 68/65/90 86/68/91 85/70/92
f 68/65/90 69/66/93 87/67/94 86/68/91
s 6
f 70/36/75 71/35/74 89/39/95 88/40/96
s 8
f 73/48/80 74/47/79 92/49/97 91/50/98
f 74/47/79 75/51/99 93/52/100 92/49/97
s 11
f 76/71/101 77/72/102 97/73/103 96/74/104
s 9
f 78/58/84 79/57/83 99/59/105 98/60/106
f 79/57/83 80/61/107 100/62/108 99/59/105
s 12
f 83/79/109 84/80/110 104/81/111 103/82/112
f 84/80/110 85/83/113 105/84/114 104/81/111
s off
f 87/87/115 88/88/116 107/89/117 106/90/118
f 89/91/119 90/92/120 109/93/121 108/94/122
s 8
f 91/50/98 92/49/97 111/53/123 110/54/124
s 13
f 94/95/125 95/96/126 114/97/127 113/98/128
s 11
f 96/74/104 97/73/103 116/75/129 115/76/130
f 97/73/103 98/77/131 117/78/132 116/75/129
s 9
f 99/59/105 100/62/108 119/63/133 118/64/134
s 14
f 101/101/135 102/102/136 121/103/137 120/104/138
s 12
f 104/81/111 105/84/114 124/85/139 123/86/140
s off
f 109/177/141 110/178/142 129/179/143 128/180/144
f 111/109/145 112/110/146 131/111/147 130/112/148
s 13
f 113/98/128 114/97/127 133/99/149 132/100/150
s off
f 117/113/151 118/114/152 135/115/153 134/116/154
s 14
f 119/107/155 120/104/138 137/106/156 136/108/157
f 120/104/138 121/103/137 138/105/158 137/106/156
s off
f 122/117/159 123/118/160 140/119/161 139/120/162
f 124/181/163 125/182/164 142/183/165 141/184/166
f 126/121/167 127/122/168 144/123/169 143/124/170
s 15
f 129/125/171 130/126/172 146/127/173 145/128/174
s off
f 135/131/175 136/132/176 151/133/177 150/134/178
f 140/135/179 141/136/180 156/137/181 155/138/182
s 15
f 145/128/174 146/127/173 163/129/183 162/130/184
s off
f 148/185/185 149/186/186 167/187/187 166/188/188
f 151/207/189 152/208/190 169/209/191 168/210/192
f 153/189/193 154/190/194 171/191/195 170/192/196
f 156/211/197 157/212/198 173/213/199 172/214/200
f 158/193/201 159/194/202 175/195/203 174/196/204
f 160/197/205 161/198/206 177/199/207 176/200/208
s 16
f 163/201/209 164/202/210 179/203/211 178/204/212
f 164/202/210 147/205/213 165/206/214 179/203/211
