# This file uses centimeters as units for non-parametric coordinates.

mtllib Clock.mtl
g default
v 1.107606 0.309017 0.135079
v 0.965566 0.587786 0.135079
v 0.744334 0.809017 0.135079
v 0.465566 0.951057 0.135079
v 0.156549 1.000000 0.135079
v -0.152469 0.951057 0.135079
v -0.431237 0.809017 0.135079
v -0.652469 0.587785 0.135079
v -0.794508 0.309017 0.135079
v -0.843452 -0.000000 0.135079
v -0.794508 -0.309017 0.135079
v -0.652469 -0.587785 0.135079
v -0.431237 -0.809017 0.135079
v -0.152468 -0.951057 0.135079
v 0.156549 -1.000000 0.135079
v 0.465566 -0.951057 0.135079
v 0.744334 -0.809017 0.135079
v 0.965566 -0.587785 0.135079
v 1.107605 -0.309017 0.135079
v 1.156549 -0.000000 0.135079
v 1.107606 0.309017 0.444029
v 0.965566 0.587786 0.444029
v 0.744334 0.809017 0.444029
v 0.465566 0.951057 0.444029
v 0.156549 1.000000 0.444029
v -0.152469 0.951057 0.444029
v -0.431237 0.809017 0.444029
v -0.652469 0.587785 0.444029
v -0.794508 0.309017 0.444029
v -0.843452 0.000000 0.444029
v -0.794508 -0.309017 0.444029
v -0.652469 -0.587785 0.444029
v -0.431237 -0.809017 0.444029
v -0.152468 -0.951057 0.444029
v 0.156549 -1.000000 0.444029
v 0.465566 -0.951057 0.444029
v 0.744334 -0.809017 0.444029
v 0.965566 -0.587785 0.444029
v 1.107605 -0.309017 0.444029
v 1.156549 0.000000 0.444029
v 0.156549 -0.000000 0.135079
v 0.156549 0.000000 0.444029
vt 0.141931 0.645671
vt 0.144829 0.645671
vt 0.144829 0.666462
vt 0.141931 0.666462
vt 0.138719 0.645671
vt 0.138719 0.666462
vt 0.135506 0.645671
vt 0.135506 0.666462
vt 0.132608 0.645671
vt 0.132608 0.666462
vt 0.117759 0.645671
vt 0.120059 0.645671
vt 0.120059 0.666462
vt 0.117759 0.666462
vt 0.122957 0.645671
vt 0.122957 0.666462
vt 0.126169 0.645671
vt 0.126169 0.666462
vt 0.129381 0.645671
vt 0.129381 0.666462
vt 0.132279 0.645671
vt 0.132279 0.666462
vt 0.102909 0.645671
vt 0.105209 0.645671
vt 0.105209 0.666462
vt 0.102909 0.666462
vt 0.108107 0.645671
vt 0.108107 0.666462
vt 0.111320 0.645671
vt 0.111320 0.666462
vt 0.114532 0.645671
vt 0.114532 0.666462
vt 0.117430 0.645671
vt 0.117430 0.666462
vt 0.091411 0.666676
vt 0.093711 0.666676
vt 0.093711 0.687467
vt 0.091411 0.687467
vt 0.096608 0.666676
vt 0.096608 0.687467
vt 0.099821 0.666676
vt 0.099821 0.687467
vt 0.103033 0.666676
vt 0.103033 0.687467
vt 0.105931 0.666676
vt 0.105931 0.687467
vt 0.108231 0.666676
vt 0.108231 0.687467
vt 0.151874 0.752046
vt 0.090495 0.631583
vt 0.501470 0.498049
vt 0.069346 0.498049
vt 0.247474 0.847645
vt 0.090495 0.364515
vt 0.367936 0.909024
vt 0.151874 0.244053
vt 0.501470 0.930174
vt 0.247474 0.148453
vt 0.635004 0.909024
vt 0.367936 0.087074
vt 0.755466 0.847645
vt 0.501470 0.065925
vt 0.851066 0.752046
vt 0.635004 0.087074
vt 0.912445 0.631583
vt 0.755466 0.148453
vt 0.933595 0.498049
vt 0.851066 0.244053
vt 0.912445 0.364515
vt 0.912634 0.631583
vt 0.851255 0.752046
vt 0.501659 0.498049
vt 0.755655 0.847645
vt 0.933783 0.498049
vt 0.635193 0.909024
vt 0.912633 0.364515
vt 0.501659 0.930174
vt 0.851255 0.244053
vt 0.368125 0.909024
vt 0.755655 0.148453
vt 0.247662 0.847645
vt 0.635192 0.087074
vt 0.152062 0.752046
vt 0.501659 0.065925
vt 0.090684 0.631583
vt 0.368125 0.087074
vt 0.069534 0.498049
vt 0.247662 0.148453
vt 0.090684 0.364515
vt 0.152063 0.244053
vn 0.951057 0.309016 -0.000000
vn 0.809017 0.587785 -0.000000
vn 0.809017 0.587785 -0.000000
vn 0.951057 0.309016 -0.000000
vn 0.587785 0.809017 -0.000000
vn 0.587785 0.809017 -0.000000
vn 0.309017 0.951057 -0.000000
vn 0.309017 0.951057 -0.000000
vn -0.000000 1.000000 -0.000000
vn -0.000000 1.000000 -0.000000
vn -0.309017 0.951056 -0.000000
vn -0.309017 0.951056 -0.000000
vn -0.587785 0.809017 -0.000000
vn -0.587785 0.809017 -0.000000
vn -0.809017 0.587785 -0.000000
vn -0.809017 0.587785 -0.000000
vn -0.951057 0.309017 -0.000000
vn -0.951057 0.309017 -0.000000
vn -1.000000 0.000000 0.000000
vn -1.000000 0.000000 0.000000
vn -0.951057 -0.309017 0.000000
vn -0.951057 -0.309017 0.000000
vn -0.809017 -0.587785 0.000000
vn -0.809017 -0.587785 0.000000
vn -0.587785 -0.809017 0.000000
vn -0.587785 -0.809017 0.000000
vn -0.309017 -0.951057 0.000000
vn -0.309017 -0.951057 0.000000
vn 0.000000 -1.000000 0.000000
vn 0.000000 -1.000000 0.000000
vn 0.309017 -0.951057 0.000000
vn 0.309017 -0.951057 0.000000
vn 0.587785 -0.809017 0.000000
vn 0.587785 -0.809017 0.000000
vn 0.809017 -0.587785 0.000000
vn 0.809017 -0.587785 0.000000
vn 0.951057 -0.309017 0.000000
vn 0.951057 -0.309017 0.000000
vn 1.000000 -0.000001 0.000000
vn 1.000000 -0.000001 0.000000
vn 0.000000 -0.000000 -1.000000
vn 0.000000 -0.000000 -1.000000
vn 0.000000 -0.000000 -1.000000
vn 0.000000 -0.000000 -1.000000
vn 0.000000 -0.000000 -1.000000
vn 0.000000 -0.000000 -1.000000
vn 0.000000 -0.000000 -1.000000
vn 0.000000 -0.000000 -1.000000
vn 0.000000 -0.000000 -1.000000
vn 0.000000 -0.000000 -1.000000
vn 0.000000 -0.000000 -1.000000
vn 0.000000 -0.000000 -1.000000
vn 0.000000 -0.000000 -1.000000
vn 0.000000 -0.000000 -1.000000
vn 0.000000 -0.000000 -1.000000
vn 0.000000 -0.000000 -1.000000
vn 0.000000 -0.000000 -1.000000
vn 0.000000 -0.000000 -1.000000
vn 0.000000 -0.000000 -1.000000
vn 0.000000 -0.000000 -1.000000
vn 0.000000 -0.000000 -1.000000
vn 0.000000 0.000000 1.000000
vn 0.000000 0.000000 1.000000
vn 0.000000 0.000000 1.000000
vn 0.000000 0.000000 1.000000
vn 0.000000 0.000000 1.000000
vn 0.000000 0.000000 1.000000
vn 0.000000 0.000000 1.000000
vn 0.000000 0.000000 1.000000
vn 0.000000 0.000000 1.000000
vn 0.000000 0.000000 1.000000
vn 0.000000 0.000000 1.000000
vn 0.000000 0.000000 1.000000
vn 0.000000 0.000000 1.000000
vn 0.000000 0.000000 1.000000
vn 0.000000 0.000000 1.000000
vn 0.000000 0.000000 1.000000
vn 0.000000 0.000000 1.000000
vn 0.000000 0.000000 1.000000
vn 0.000000 0.000000 1.000000
vn 0.000000 0.000000 1.000000
vn 0.000000 0.000000 1.000000
s 1
g pCylinder1
usemtl initialShadingGroup
f 1/1/1 2/2/2 22/3/3 21/4/4
f 2/11/2 3/12/5 23/13/6 22/14/3
f 3/12/5 4/15/7 24/16/8 23/13/6
f 4/15/7 5/17/9 25/18/10 24/16/8
f 5/17/9 6/19/11 26/20/12 25/18/10
f 6/19/11 7/21/13 27/22/14 26/20/12
f 7/23/13 8/24/15 28/25/16 27/26/14
f 8/24/15 9/27/17 29/28/18 28/25/16
f 9/27/17 10/29/19 30/30/20 29/28/18
f 10/29/19 11/31/21 31/32/22 30/30/20
f 11/31/21 12/33/23 32/34/24 31/32/22
f 12/35/23 13/36/25 33/37/26 32/38/24
f 13/36/25 14/39/27 34/40/28 33/37/26
f 14/39/27 15/41/29 35/42/30 34/40/28
f 15/41/29 16/43/31 36/44/32 35/42/30
f 16/43/31 17/45/33 37/46/34 36/44/32
f 17/45/33 18/47/35 38/48/36 37/46/34
f 18/9/35 19/7/37 39/8/38 38/10/36
f 19/7/37 20/5/39 40/6/40 39/8/38
f 20/5/39 1/1/1 21/4/4 40/6/40
s 2
f 2/49/41 1/50/42 41/51/43
f 3/53/44 2/49/41 41/51/43
f 4/55/45 3/53/44 41/51/43
f 5/57/46 4/55/45 41/51/43
f 6/59/47 5/57/46 41/51/43
f 7/61/48 6/59/47 41/51/43
f 8/63/49 7/61/48 41/51/43
f 9/65/50 8/63/49 41/51/43
f 10/67/51 9/65/50 41/51/43
f 11/69/52 10/67/51 41/51/43
f 12/68/53 11/69/52 41/51/43
f 13/66/54 12/68/53 41/51/43
f 14/64/55 13/66/54 41/51/43
f 15/62/56 14/64/55 41/51/43
f 16/60/57 15/62/56 41/51/43
f 17/58/58 16/60/57 41/51/43
f 18/56/59 17/58/58 41/51/43
f 19/54/60 18/56/59 41/51/43
f 20/52/61 19/54/60 41/51/43
f 1/50/42 20/52/61 41/51/43
s 3
f 21/70/62 22/71/63 42/72/64
f 22/71/63 23/73/65 42/72/64
f 23/73/65 24/75/66 42/72/64
f 24/75/66 25/77/67 42/72/64
f 25/77/67 26/79/68 42/72/64
f 26/79/68 27/81/69 42/72/64
f 27/81/69 28/83/70 42/72/64
f 28/83/70 29/85/71 42/72/64
f 29/85/71 30/87/72 42/72/64
f 30/87/72 31/89/73 42/72/64
f 31/89/73 32/90/74 42/72/64
f 32/90/74 33/88/75 42/72/64
f 33/88/75 34/86/76 42/72/64
f 34/86/76 35/84/77 42/72/64
f 35/84/77 36/82/78 42/72/64
f 36/82/78 37/80/79 42/72/64
f 37/80/79 38/78/80 42/72/64
f 38/78/80 39/76/81 42/72/64
f 39/76/81 40/74/82 42/72/64
f 40/74/82 21/70/62 42/72/64
