# This file uses centimeters as units for non-parametric coordinates.

mtllib DoraemonSlidingDoor.mtl
g default
v -0.617981 0.075841 1.012748
v -0.331124 0.075841 1.012748
v -0.617981 3.483792 1.012748
v -0.331124 3.483792 1.012748
v -0.617981 3.483792 -1.438487
v -0.331124 3.483792 -1.438487
v -0.617981 0.075841 -1.438487
v -0.331124 0.075841 -1.438487
vt 0.333475 0.083578
vt 0.522320 0.410721
vt 0.477680 0.455361
vt 0.666525 0.923280
vt 0.477680 0.500000
vt 0.522320 0.500000
vt 0.477680 0.544639
vt 0.522320 0.544639
vt 0.477680 0.589279
vt 0.522320 0.589279
vt 0.999575 0.083578
vt 0.999575 0.923280
vt 0.000425 0.083578
vt 0.000425 0.923280
vt 0.666525 0.083578
vt 0.477680 0.410721
vt 0.522320 0.455361
vt 0.333475 0.923280
vn 0.000000 0.000000 1.000000
vn 0.000000 0.000000 1.000000
vn 0.000000 0.000000 1.000000
vn 0.000000 0.000000 1.000000
vn 0.000000 1.000000 0.000000
vn 0.000000 1.000000 0.000000
vn 0.000000 1.000000 0.000000
vn 0.000000 1.000000 0.000000
vn 0.000000 0.000000 -1.000000
vn 0.000000 0.000000 -1.000000
vn 0.000000 0.000000 -1.000000
vn 0.000000 0.000000 -1.000000
vn 0.000000 -1.000000 0.000000
vn 0.000000 -1.000000 0.000000
vn 0.000000 -1.000000 0.000000
vn 0.000000 -1.000000 0.000000
vn 1.000000 0.000000 0.000000
vn 1.000000 0.000000 0.000000
vn 1.000000 0.000000 0.000000
vn 1.000000 0.000000 0.000000
vn -1.000000 0.000000 0.000000
vn -1.000000 0.000000 0.000000
vn -1.000000 0.000000 0.000000
vn -1.000000 0.000000 0.000000
s off
g pCube1
usemtl initialShadingGroup
f 1/16/1 2/2/2 4/17/3 3/3/4
f 3/3/5 4/17/6 6/6/7 5/5/8
f 5/5/9 6/6/10 8/8/11 7/7/12
f 7/7/13 8/8/14 2/10/15 1/9/16
f 2/15/17 8/11/18 6/12/19 4/4/20
f 7/13/21 1/1/22 3/18/23 5/14/24
