# This file uses centimeters as units for non-parametric coordinates.

mtllib DoraemonBody.mtl
g default
v -0.165281 1.472789 -0.291340
v 0.434649 1.474454 -0.291340
v 0.405286 1.474454 -0.529966
v 0.320073 1.474454 -0.745235
v 0.187349 1.474454 -0.916072
v 0.020108 1.474454 -1.025754
v -0.165281 1.474454 -1.063551
v -0.350670 1.474454 -1.025758
v -0.517911 1.474454 -0.916072
v -0.650634 1.474454 -0.745235
v -0.735848 1.474454 -0.529966
v -0.765211 1.474454 -0.291340
v -0.735848 1.474454 -0.052714
v -0.650634 1.474454 0.162554
v -0.517911 1.474454 0.333392
v -0.350670 1.474454 0.443076
v -0.165281 1.474454 0.480871
v 0.020108 1.474454 0.443076
v 0.187349 1.474454 0.333392
v 0.320073 1.474454 0.162554
v 0.405287 1.474454 -0.052714
v -0.735848 0.874713 -0.052714
v -0.765211 0.874713 -0.291340
v -0.735848 0.874713 -0.529966
v -0.650634 0.874713 -0.745235
v -0.517911 0.874713 -0.916072
v -0.350670 0.874713 -1.025758
v -0.165281 0.874713 -1.063551
v 0.020108 0.874713 -1.025754
v 0.187349 0.874713 -0.916072
v 0.320073 0.874713 -0.745235
v 0.405286 0.874713 -0.529966
v 0.434649 0.874713 -0.291340
v 0.405287 0.874713 -0.052714
v 0.320073 0.874713 0.162554
v 0.187349 0.874713 0.333392
v 0.020108 0.874713 0.443076
v -0.165281 0.874713 0.480871
v -0.350670 0.874713 0.443076
v -0.517911 0.874713 0.333392
v -0.650634 0.874713 0.162554
v -0.165281 0.276638 -0.291340
v 0.434649 0.274973 -0.291340
v 0.405286 0.274973 -0.529966
v 0.320073 0.274973 -0.745235
v 0.187349 0.274973 -0.916072
v 0.020108 0.274973 -1.025754
v -0.165281 0.274973 -1.063551
v -0.350670 0.274973 -1.025758
v -0.517911 0.274973 -0.916072
v -0.650634 0.274973 -0.745235
v -0.735848 0.274973 -0.529966
v -0.765211 0.274973 -0.291340
v -0.735848 0.274973 -0.052714
v -0.650634 0.274973 0.162554
v -0.517911 0.274973 0.333392
v -0.350670 0.274973 0.443076
v -0.165281 0.274973 0.480871
v 0.020108 0.274973 0.443076
v 0.187349 0.274973 0.333392
v 0.320073 0.274973 0.162554
v 0.405287 0.274973 -0.052714
vt 0.277048 0.134823
vt 0.305556 0.134823
vt 0.304161 0.146162
vt 0.304161 0.123484
vt 0.300112 0.156392
vt 0.300112 0.113254
vt 0.293805 0.164510
vt 0.293805 0.105136
vt 0.285858 0.169722
vt 0.285858 0.099924
vt 0.277048 0.171518
vt 0.277048 0.098128
vt 0.268239 0.169722
vt 0.268239 0.099924
vt 0.260292 0.164510
vt 0.260292 0.105136
vt 0.253985 0.156392
vt 0.253985 0.113254
vt 0.249935 0.146162
vt 0.249935 0.123484
vt 0.248540 0.134823
vt 0.629206 0.736619
vt 0.509628 0.734855
vt 0.514063 0.434320
vt 0.633641 0.436084
vt 0.390051 0.733090
vt 0.394486 0.432555
vt 0.638076 0.135549
vt 0.518499 0.133784
vt 0.737079 0.738211
vt 0.741514 0.437676
vt 0.282178 0.731498
vt 0.286613 0.430963
vt 0.398921 0.132019
vt 0.745949 0.137141
vt 0.822687 0.739474
vt 0.827122 0.438939
vt 0.196570 0.730235
vt 0.201005 0.429700
vt 0.291048 0.130428
vt 0.831557 0.138404
vt 0.205440 0.129164
vt 0.171385 0.845934
vt 0.155548 0.845934
vt 0.155548 0.789140
vt 0.171385 0.789140
vt 0.137992 0.845934
vt 0.137992 0.789140
vt 0.171385 0.732346
vt 0.155548 0.732346
vt 0.120436 0.845934
vt 0.120436 0.789140
vt 0.137992 0.732346
vt 0.104598 0.845934
vt 0.104598 0.789140
vt 0.120436 0.732346
vt 0.104598 0.732346
vt 0.287065 0.732346
vt 0.287065 0.748523
vt 0.230271 0.748523
vt 0.230271 0.732346
vt 0.287065 0.768909
vt 0.230271 0.768909
vt 0.173476 0.732346
vt 0.173476 0.748523
vt 0.287065 0.791507
vt 0.230271 0.791507
vt 0.173476 0.768909
vt 0.287065 0.814104
vt 0.230271 0.814104
vt 0.173476 0.791507
vt 0.287065 0.834490
vt 0.230271 0.834490
vt 0.173476 0.814104
vt 0.287065 0.850668
vt 0.230271 0.850668
vt 0.173476 0.834490
vt 0.173476 0.850668
vt 0.087312 0.960884
vt 0.071474 0.960884
vt 0.071474 0.904089
vt 0.087312 0.904089
vt 0.053918 0.960884
vt 0.053918 0.904089
vt 0.087312 0.847295
vt 0.071474 0.847295
vt 0.036362 0.960884
vt 0.036362 0.904089
vt 0.053918 0.847295
vt 0.020525 0.960884
vt 0.020525 0.904089
vt 0.036362 0.847295
vt 0.020525 0.847295
vt 0.335417 0.134823
vt 0.308304 0.146162
vt 0.306909 0.134823
vt 0.312353 0.156392
vt 0.308304 0.123484
vt 0.318660 0.164510
vt 0.312353 0.113254
vt 0.326607 0.169722
vt 0.318660 0.105136
vt 0.335417 0.171518
vt 0.326607 0.099924
vt 0.344226 0.169722
vt 0.335417 0.098128
vt 0.352174 0.164510
vt 0.344226 0.099924
vt 0.358480 0.156392
vt 0.352174 0.105136
vt 0.362530 0.146162
vt 0.358480 0.113254
vt 0.363925 0.134823
vt 0.362530 0.123484
vn 0.759381 0.650647 -0.000001
vn 0.759381 0.650647 -0.000001
vn 0.722215 0.650646 -0.234660
vn 0.722214 0.650646 -0.234662
vn 0.722215 0.650646 -0.234660
vn 0.614355 0.650643 -0.446354
vn 0.614354 0.650643 -0.446355
vn 0.614355 0.650643 -0.446354
vn 0.446357 0.650637 -0.614359
vn 0.446356 0.650637 -0.614360
vn 0.446357 0.650637 -0.614359
vn 0.234667 0.650631 -0.722227
vn 0.234664 0.650631 -0.722228
vn 0.234667 0.650631 -0.722227
vn 0.000003 0.650636 -0.759389
vn 0.000003 0.650636 -0.759389
vn 0.000003 0.650636 -0.759389
vn -0.234662 0.650646 -0.722215
vn -0.234661 0.650646 -0.722215
vn -0.234662 0.650646 -0.722215
vn -0.446355 0.650646 -0.614351
vn -0.446353 0.650646 -0.614352
vn -0.446355 0.650646 -0.614351
vn -0.614353 0.650645 -0.446353
vn -0.614353 0.650645 -0.446354
vn -0.614353 0.650645 -0.446353
vn -0.722215 0.650646 -0.234660
vn -0.722214 0.650646 -0.234662
vn -0.722215 0.650646 -0.234660
vn -0.759380 0.650648 0.000000
vn -0.759380 0.650648 0.000000
vn -0.759380 0.650648 0.000000
vn -0.722214 0.650647 0.234661
vn -0.722214 0.650647 0.234661
vn -0.722214 0.650647 0.234661
vn -0.614353 0.650645 0.446353
vn -0.614354 0.650646 0.446352
vn -0.614353 0.650645 0.446353
vn -0.446352 0.650646 0.614353
vn -0.446351 0.650646 0.614353
vn -0.446352 0.650646 0.614353
vn -0.234661 0.650648 0.722213
vn -0.234662 0.650648 0.722213
vn -0.234661 0.650648 0.722213
vn -0.000001 0.650645 0.759382
vn -0.000001 0.650645 0.759382
vn -0.000001 0.650645 0.759382
vn 0.234663 0.650642 0.722218
vn 0.234662 0.650642 0.722218
vn 0.234663 0.650642 0.722218
vn 0.446355 0.650642 0.614355
vn 0.446354 0.650642 0.614356
vn 0.446355 0.650642 0.614355
vn 0.614354 0.650643 0.446355
vn 0.614354 0.650643 0.446354
vn 0.614354 0.650643 0.446355
vn 0.722215 0.650645 0.234661
vn 0.722216 0.650645 0.234660
vn 0.722215 0.650645 0.234661
vn 0.759381 0.650647 -0.000001
vn -0.951057 0.000000 0.309017
vn -1.000000 0.000000 0.000000
vn -0.992514 0.000000 0.122129
vn -0.992514 0.000000 0.122129
vn -1.000000 0.000000 0.000000
vn -0.951056 0.000000 -0.309017
vn -0.992514 0.000000 -0.122129
vn -0.992514 0.000000 -0.122129
vn -0.951056 0.000000 -0.309017
vn -0.809017 0.000000 -0.587785
vn -0.929802 0.000000 -0.368061
vn -0.929802 0.000000 -0.368061
vn -0.809017 0.000000 -0.587785
vn -0.587787 0.000000 -0.809016
vn -0.789689 0.000000 -0.613508
vn -0.789689 0.000000 -0.613508
vn -0.587787 0.000000 -0.809016
vn -0.309016 0.000000 -0.951057
vn -0.548426 0.000000 -0.836200
vn -0.548426 0.000000 -0.836200
vn -0.309016 0.000000 -0.951057
vn 0.000008 0.000000 -1.000000
vn -0.199749 0.000000 -0.979847
vn -0.199749 0.000000 -0.979847
vn 0.000008 0.000000 -1.000000
vn 0.309016 0.000000 -0.951057
vn 0.199770 0.000000 -0.979843
vn 0.199770 0.000000 -0.979843
vn 0.309016 0.000000 -0.951057
vn 0.587782 0.000000 -0.809019
vn 0.548411 0.000000 -0.836209
vn 0.548411 0.000000 -0.836209
vn 0.587782 0.000000 -0.809019
vn 0.809017 0.000000 -0.587786
vn 0.789687 0.000000 -0.613510
vn 0.789687 0.000000 -0.613510
vn 0.809017 0.000000 -0.587786
vn 0.951057 0.000000 -0.309017
vn 0.929803 -0.000000 -0.368059
vn 0.929803 -0.000000 -0.368059
vn 0.951057 0.000000 -0.309017
vn 1.000000 0.000000 -0.000001
vn 0.992514 -0.000000 -0.122128
vn 0.992514 -0.000000 -0.122128
vn 1.000000 0.000000 -0.000001
vn 0.951057 0.000000 0.309016
vn 0.992515 0.000000 0.122125
vn 0.992515 0.000000 0.122125
vn 0.951057 0.000000 0.309016
vn 0.809017 0.000000 0.587786
vn 0.929801 0.000000 0.368063
vn 0.929801 0.000000 0.368063
vn 0.809017 0.000000 0.587786
vn 0.587785 0.000000 0.809017
vn 0.789689 0.000000 0.613508
vn 0.789689 0.000000 0.613508
vn 0.587785 0.000000 0.809017
vn 0.309016 0.000000 0.951057
vn 0.548419 0.000000 0.836204
vn 0.548419 0.000000 0.836204
vn 0.309016 0.000000 0.951057
vn 0.000000 0.000000 1.000000
vn 0.199760 0.000000 0.979845
vn 0.199760 0.000000 0.979845
vn 0.000000 0.000000 1.000000
vn -0.309017 0.000000 0.951057
vn -0.199760 0.000000 0.979845
vn -0.199760 0.000000 0.979845
vn -0.309017 0.000000 0.951057
vn -0.587785 0.000000 0.809017
vn -0.548419 0.000000 0.836204
vn -0.548419 0.000000 0.836204
vn -0.587785 0.000000 0.809017
vn -0.809017 0.000000 0.587785
vn -0.789691 0.000000 0.613505
vn -0.789691 0.000000 0.613505
vn -0.809017 0.000000 0.587785
vn -0.951057 0.000000 0.309017
vn -0.929801 0.000000 0.368063
vn -0.929801 0.000000 0.368063
vn 0.759381 -0.650647 -0.000001
vn 0.722215 -0.650646 -0.234660
vn 0.759381 -0.650647 -0.000001
vn 0.722214 -0.650646 -0.234662
vn 0.614355 -0.650643 -0.446354
vn 0.722215 -0.650646 -0.234660
vn 0.614354 -0.650643 -0.446355
vn 0.446357 -0.650637 -0.614359
vn 0.614355 -0.650643 -0.446354
vn 0.446356 -0.650637 -0.614360
vn 0.234667 -0.650631 -0.722227
vn 0.446357 -0.650637 -0.614359
vn 0.234664 -0.650631 -0.722228
vn 0.000003 -0.650636 -0.759389
vn 0.234667 -0.650631 -0.722227
vn 0.000003 -0.650636 -0.759389
vn -0.234662 -0.650646 -0.722215
vn 0.000003 -0.650636 -0.759389
vn -0.234661 -0.650646 -0.722215
vn -0.446355 -0.650646 -0.614351
vn -0.234662 -0.650646 -0.722215
vn -0.446353 -0.650646 -0.614352
vn -0.614353 -0.650645 -0.446353
vn -0.446355 -0.650646 -0.614351
vn -0.614353 -0.650645 -0.446354
vn -0.722215 -0.650646 -0.234660
vn -0.614353 -0.650645 -0.446353
vn -0.722214 -0.650646 -0.234662
vn -0.759380 -0.650648 0.000000
vn -0.722215 -0.650646 -0.234660
vn -0.759380 -0.650648 0.000000
vn -0.722214 -0.650647 0.234661
vn -0.759380 -0.650648 0.000000
vn -0.722214 -0.650647 0.234661
vn -0.614353 -0.650645 0.446353
vn -0.722214 -0.650647 0.234661
vn -0.614354 -0.650646 0.446352
vn -0.446352 -0.650646 0.614353
vn -0.614353 -0.650645 0.446353
vn -0.446351 -0.650646 0.614353
vn -0.234661 -0.650648 0.722213
vn -0.446352 -0.650646 0.614353
vn -0.234662 -0.650648 0.722213
vn -0.000001 -0.650645 0.759382
vn -0.234661 -0.650648 0.722213
vn -0.000001 -0.650645 0.759382
vn 0.234663 -0.650642 0.722218
vn -0.000001 -0.650645 0.759382
vn 0.234662 -0.650642 0.722218
vn 0.446355 -0.650642 0.614355
vn 0.234663 -0.650642 0.722218
vn 0.446354 -0.650642 0.614356
vn 0.614354 -0.650643 0.446355
vn 0.446355 -0.650642 0.614355
vn 0.614354 -0.650643 0.446354
vn 0.722215 -0.650645 0.234661
vn 0.614354 -0.650643 0.446355
vn 0.722216 -0.650645 0.234660
vn 0.759381 -0.650647 -0.000001
vn 0.722215 -0.650645 0.234661
vn -0.951057 0.000000 0.309017
vn -0.992514 0.000000 0.122129
vn -0.992514 0.000000 0.122129
vn -1.000000 0.000000 0.000000
vn -1.000000 0.000000 0.000000
vn -0.992514 0.000000 -0.122129
vn -0.992514 0.000000 -0.122129
vn -0.951056 0.000000 -0.309017
vn -0.951056 0.000000 -0.309017
vn -0.929802 0.000000 -0.368061
vn -0.929802 0.000000 -0.368061
vn -0.809017 0.000000 -0.587785
vn -0.809017 0.000000 -0.587785
vn -0.789689 0.000000 -0.613508
vn -0.789689 0.000000 -0.613508
vn -0.587787 0.000000 -0.809016
vn -0.587787 0.000000 -0.809016
vn -0.548426 0.000000 -0.836199
vn -0.548426 0.000000 -0.836199
vn -0.309016 0.000000 -0.951057
vn -0.309016 0.000000 -0.951057
vn -0.199749 0.000000 -0.979847
vn -0.199749 0.000000 -0.979847
vn 0.000008 0.000000 -1.000000
vn 0.000008 0.000000 -1.000000
vn 0.199770 0.000000 -0.979843
vn 0.199770 0.000000 -0.979843
vn 0.309016 0.000000 -0.951057
vn 0.309016 0.000000 -0.951057
vn 0.548411 0.000000 -0.836209
vn 0.548411 0.000000 -0.836209
vn 0.587782 0.000000 -0.809019
vn 0.587782 0.000000 -0.809019
vn 0.789687 0.000000 -0.613510
vn 0.789687 0.000000 -0.613510
vn 0.809017 0.000000 -0.587786
vn 0.809017 0.000000 -0.587786
vn 0.929803 0.000000 -0.368059
vn 0.929803 0.000000 -0.368059
vn 0.951057 0.000000 -0.309017
vn 0.951057 0.000000 -0.309017
vn 0.992514 0.000000 -0.122128
vn 0.992514 0.000000 -0.122128
vn 1.000000 0.000000 -0.000001
vn 1.000000 0.000000 -0.000001
vn 0.992515 0.000000 0.122125
vn 0.992515 0.000000 0.122125
vn 0.951057 0.000000 0.309016
vn 0.951057 0.000000 0.309016
vn 0.929801 0.000000 0.368063
vn 0.929801 0.000000 0.368063
vn 0.809017 0.000000 0.587786
vn 0.809017 0.000000 0.587786
vn 0.789689 0.000000 0.613508
vn 0.789689 0.000000 0.613508
vn 0.587785 0.000000 0.809017
vn 0.587785 0.000000 0.809017
vn 0.548419 0.000000 0.836204
vn 0.548419 0.000000 0.836204
vn 0.309016 0.000000 0.951057
vn 0.309016 0.000000 0.951057
vn 0.199760 0.000000 0.979845
vn 0.199760 0.000000 0.979845
vn 0.000000 0.000000 1.000000
vn 0.000000 0.000000 1.000000
vn -0.199760 0.000000 0.979845
vn -0.199760 0.000000 0.979845
vn -0.309017 0.000000 0.951057
vn -0.309017 0.000000 0.951057
vn -0.548419 0.000000 0.836204
vn -0.548419 0.000000 0.836204
vn -0.587785 0.000000 0.809017
vn -0.587785 0.000000 0.809017
vn -0.789691 0.000000 0.613505
vn -0.789691 0.000000 0.613505
vn -0.809017 0.000000 0.587785
vn -0.809017 0.000000 0.587785
vn -0.929801 0.000000 0.368063
vn -0.929801 0.000000 0.368063
vn -0.951057 0.000000 0.309017
s off
g pPipe1
usemtl lambert2SG
f 1/1/1 2/2/2 3/3/3
f 1/1/4 3/3/5 4/5/6
f 1/1/7 4/5/8 5/7/9
f 1/1/10 5/7/11 6/9/12
f 1/1/13 6/9/14 7/11/15
f 1/1/16 7/11/17 8/13/18
f 1/1/19 8/13/20 9/15/21
f 1/1/22 9/15/23 10/17/24
f 1/1/25 10/17/26 11/19/27
f 1/1/28 11/19/29 12/21/30
f 1/1/31 12/21/32 13/20/33
f 1/1/34 13/20/35 14/18/36
f 1/1/37 14/18/38 15/16/39
f 1/1/40 15/16/41 16/14/42
f 1/1/43 16/14/44 17/12/45
f 1/1/46 17/12/47 18/10/48
f 1/1/49 18/10/50 19/8/51
f 1/1/52 19/8/53 20/6/54
f 1/1/55 20/6/56 21/4/57
f 1/1/58 21/4/59 2/2/60
f 13/22/61 12/23/62 23/24/63 22/25/64
f 12/23/65 11/26/66 24/27/67 23/24/68
f 11/26/69 10/32/70 25/33/71 24/27/72
f 10/32/73 9/38/74 26/39/75 25/33/76
f 9/43/77 8/44/78 27/45/79 26/46/80
f 8/44/81 7/47/82 28/48/83 27/45/84
f 7/47/85 6/51/86 29/52/87 28/48/88
f 6/51/89 5/54/90 30/55/91 29/52/92
f 5/58/93 4/59/94 31/60/95 30/61/96
f 4/59/97 3/62/98 32/63/99 31/60/100
f 3/62/101 2/66/102 33/67/103 32/63/104
f 2/66/105 21/69/106 34/70/107 33/67/108
f 21/69/109 20/72/110 35/73/111 34/70/112
f 20/72/113 19/75/114 36/76/115 35/73/116
f 19/79/117 18/80/118 37/81/119 36/82/120
f 18/80/121 17/83/122 38/84/123 37/81/124
f 17/83/125 16/87/126 39/88/127 38/84/128
f 16/87/129 15/90/130 40/91/131 39/88/132
f 15/36/133 14/30/134 41/31/135 40/37/136
f 14/30/137 13/22/138 22/25/139 41/31/140
f 42/94/141 44/95/142 43/96/143
f 42/94/144 45/97/145 44/95/146
f 42/94/147 46/99/148 45/97/149
f 42/94/150 47/101/151 46/99/152
f 42/94/153 48/103/154 47/101/155
f 42/94/156 49/105/157 48/103/158
f 42/94/159 50/107/160 49/105/161
f 42/94/162 51/109/163 50/107/164
f 42/94/165 52/111/166 51/109/167
f 42/94/168 53/113/169 52/111/170
f 42/94/171 54/114/172 53/113/173
f 42/94/174 55/112/175 54/114/176
f 42/94/177 56/110/178 55/112/179
f 42/94/180 57/108/181 56/110/182
f 42/94/183 58/106/184 57/108/185
f 42/94/186 59/104/187 58/106/188
f 42/94/189 60/102/190 59/104/191
f 42/94/192 61/100/193 60/102/194
f 42/94/195 62/98/196 61/100/197
f 42/94/198 43/96/199 62/98/200
f 54/28/201 22/25/202 23/24/203 53/29/204
f 53/29/205 23/24/206 24/27/207 52/34/208
f 52/34/209 24/27/210 25/33/211 51/40/212
f 51/40/213 25/33/214 26/39/215 50/42/216
f 50/49/217 26/46/218 27/45/219 49/50/220
f 49/50/221 27/45/222 28/48/223 48/53/224
f 48/53/225 28/48/226 29/52/227 47/56/228
f 47/56/229 29/52/230 30/55/231 46/57/232
f 46/64/233 30/61/234 31/60/235 45/65/236
f 45/65/237 31/60/238 32/63/239 44/68/240
f 44/68/241 32/63/242 33/67/243 43/71/244
f 43/71/245 33/67/246 34/70/247 62/74/248
f 62/74/249 34/70/250 35/73/251 61/77/252
f 61/77/253 35/73/254 36/76/255 60/78/256
f 60/85/257 36/82/258 37/81/259 59/86/260
f 59/86/261 37/81/262 38/84/263 58/89/264
f 58/89/265 38/84/266 39/88/267 57/92/268
f 57/92/269 39/88/270 40/91/271 56/93/272
f 56/41/273 40/37/274 41/31/275 55/35/276
f 55/35/277 41/31/278 22/25/279 54/28/280
