# This file uses centimeters as units for non-parametric coordinates.

mtllib Table.mtl
g default
v -2.864246 3.087065 5.297893
v 2.864246 3.087065 5.297893
v -2.864246 3.252982 5.297893
v 2.864246 3.252982 5.297893
v -2.864246 3.345992 4.822077
v 2.864246 3.345992 -4.822077
v -2.864246 3.087065 4.384907
v 2.864246 3.087065 -4.384907
v 2.864246 3.345992 4.822077
v 2.864246 3.087065 4.384906
v 2.400355 3.087065 4.384907
v 2.400355 3.087065 5.297893
v 2.400355 3.292844 5.297893
v 2.400355 3.345992 4.822077
v -2.400355 3.087065 4.384907
v -2.400355 3.087065 5.297893
v -2.400355 3.292844 5.297893
v -2.400355 3.345992 4.822077
v -2.864246 0.006504 4.822077
v -2.400355 0.006504 4.822077
v -2.400355 0.006504 5.297893
v -2.864246 0.006504 5.297893
v 2.400355 0.006504 4.822077
v 2.400355 0.006504 5.297893
v 2.864246 0.006504 4.822077
v 2.864246 0.006504 5.297893
v -2.864246 3.087065 -5.297893
v 2.864246 3.087065 -5.297893
v -2.864246 3.252982 -5.297893
v 2.864246 3.252982 -5.297893
v -2.864246 3.345992 -4.822077
v -2.864246 3.087065 -4.384906
v 2.400355 3.087065 -4.384907
v 2.400355 3.087065 -5.297893
v 2.400355 3.292844 -5.297893
v 2.400355 3.345992 -4.822077
v -2.400355 3.087065 -4.384907
v -2.400355 3.087065 -5.297893
v -2.400355 3.292844 -5.297893
v -2.400355 3.345992 -4.822077
v -2.864246 0.006504 -4.822077
v -2.400355 0.006504 -4.822077
v -2.400355 0.006504 -5.297893
v -2.864246 0.006504 -5.297893
v 2.400355 0.006504 -4.822077
v 2.400355 0.006504 -5.297893
v 2.864246 0.006504 -4.822077
v 2.864246 0.006504 -5.297893
vt 0.329514 0.176911
vt 0.354398 0.176910
vt 0.354398 0.187949
vt 0.329514 0.185811
vt 0.329514 0.011663
vt 0.354398 0.011663
vt 0.611917 0.176910
vt 0.611917 0.187949
vt 0.636802 0.176910
vt 0.636802 0.185811
vt 0.611918 0.011663
vt 0.636802 0.011663
vt 0.005069 0.002709
vt 0.029953 0.002709
vt 0.029953 0.028232
vt 0.005069 0.028232
vt 0.287472 0.002709
vt 0.287472 0.028232
vt 0.029953 0.545564
vt 0.005069 0.545564
vt 0.312356 0.002709
vt 0.312356 0.028232
vt 0.287472 0.545564
vt 0.005069 0.571088
vt 0.029953 0.571088
vt 0.312356 0.545564
vt 0.287472 0.571088
vt 0.312356 0.571088
vt 0.015657 0.963860
vt 0.064632 0.963860
vt 0.041181 0.977749
vt 0.015657 0.972760
vt 0.015657 0.798613
vt 0.041181 0.798613
vt 0.558513 0.977749
vt 0.535062 0.963860
vt 0.584036 0.963860
vt 0.584036 0.972760
vt 0.558513 0.798613
vt 0.584037 0.798613
vt 0.330416 0.411230
vt 0.355300 0.411230
vt 0.355300 0.436754
vt 0.330416 0.436754
vt 0.559587 0.768071
vt 0.536136 0.754181
vt 0.585111 0.754181
vt 0.585111 0.763081
vt 0.042255 0.768071
vt 0.065706 0.754182
vt 0.559587 0.588934
vt 0.585111 0.588934
vt 0.016731 0.763082
vt 0.016731 0.754181
vt 0.016731 0.588934
vt 0.042255 0.588934
vt 0.330416 0.436753
vt 0.330416 0.411230
vt 0.355300 0.411230
vt 0.355300 0.436753
vt 0.714636 0.584941
vt 0.714636 0.535967
vt 0.972156 0.535967
vt 0.972156 0.584941
vt 0.714636 0.065536
vt 0.972156 0.065536
vt 0.689752 0.535967
vt 0.689752 0.065536
vt 0.714636 0.016562
vt 0.972156 0.016562
vt 0.997040 0.065536
vt 0.997040 0.535967
vt 0.675180 0.596103
vt 0.700064 0.596103
vt 0.700064 0.761351
vt 0.675180 0.761351
vt 0.537932 0.573397
vt 0.488958 0.573397
vt 0.488958 0.408150
vt 0.514482 0.408150
vt 0.409992 0.576651
vt 0.361018 0.576651
vt 0.384468 0.411403
vt 0.409992 0.411403
vt 0.608560 0.595826
vt 0.633444 0.595826
vt 0.633444 0.761073
vt 0.608560 0.761073
vt 0.636273 0.378478
vt 0.636273 0.387378
vt 0.611389 0.389516
vt 0.611389 0.378478
vt 0.353869 0.389516
vt 0.353869 0.378478
vt 0.611389 0.213230
vt 0.636273 0.213230
vt 0.328985 0.387378
vt 0.328985 0.378478
vt 0.328985 0.213230
vt 0.353869 0.213230
vt 0.330416 0.436752
vt 0.330416 0.411228
vt 0.355300 0.411228
vt 0.355300 0.436752
vt 0.330416 0.411229
vt 0.355300 0.411229
vt 0.355300 0.436753
vt 0.330416 0.436753
vt 0.710114 0.760343
vt 0.710114 0.595096
vt 0.734998 0.595096
vt 0.734998 0.760343
vt 0.551136 0.573206
vt 0.574587 0.407958
vt 0.600111 0.407958
vt 0.600111 0.573206
vt 0.423172 0.576292
vt 0.423172 0.411044
vt 0.448696 0.411044
vt 0.472147 0.576292
vt 0.640394 0.761339
vt 0.640394 0.596091
vt 0.665278 0.596091
vt 0.665278 0.761339
vn -0.000001 0.000000 1.000000
vn 0.000000 0.000000 1.000000
vn 0.000000 0.000000 1.000000
vn -0.000001 0.000000 1.000000
vn -0.042429 0.987520 0.151669
vn -0.003782 0.993399 0.114648
vn -0.000178 0.999985 0.005425
vn -0.002020 0.999972 0.007221
vn 1.000000 0.000000 0.000000
vn 1.000000 -0.000001 0.000000
vn 1.000000 -0.000001 0.000000
vn 1.000000 0.000000 0.000000
vn 0.000000 -1.000000 0.000000
vn 0.000000 -1.000000 0.000000
vn 0.000000 -1.000000 0.000000
vn 0.000000 -1.000000 0.000000
vn -1.000000 -0.000001 0.000000
vn -1.000000 -0.000001 0.000000
vn -1.000000 0.000000 0.000000
vn -1.000000 0.000000 0.000000
vn -0.000178 0.999985 -0.005425
vn -0.002020 0.999972 -0.007221
vn 1.000000 -0.000001 0.000000
vn 1.000000 -0.000001 0.000000
vn 0.000000 -1.000000 0.000000
vn 0.000000 -1.000000 0.000000
vn 0.000000 -1.000000 0.000000
vn 0.000000 -1.000000 0.000000
vn 0.000000 0.000000 1.000000
vn 0.000000 0.000000 1.000000
vn 0.000000 0.000000 1.000000
vn 0.000000 0.000000 1.000000
vn 0.000178 0.999985 0.005425
vn 0.003782 0.993399 0.114648
vn 0.042429 0.987520 0.151670
vn 0.002020 0.999972 0.007221
vn 0.002020 0.999972 -0.007221
vn 0.000178 0.999985 -0.005425
vn 0.000000 -1.000000 0.000000
vn 0.000000 -1.000000 0.000000
vn 0.000000 -1.000000 0.000000
vn 0.000000 -1.000000 0.000000
vn 0.000000 -0.140505 -0.990080
vn 0.000000 -0.140505 -0.990080
vn 0.000000 -0.140505 -0.990080
vn 0.000000 -0.140505 -0.990080
vn 1.000000 -0.000000 0.000000
vn 1.000000 -0.000000 0.000000
vn 1.000000 -0.000000 0.000000
vn 1.000000 -0.000000 0.000000
vn 0.000000 0.000000 1.000000
vn 0.000000 0.000000 1.000000
vn 0.000000 0.000000 1.000000
vn 0.000000 0.000000 1.000000
vn -1.000000 0.000000 0.000000
vn -1.000000 0.000000 0.000000
vn -1.000000 0.000000 0.000000
vn -1.000000 0.000000 0.000000
vn -1.000000 0.000000 0.000000
vn -1.000000 0.000000 0.000000
vn -1.000000 0.000000 0.000000
vn -1.000000 0.000000 0.000000
vn -0.000002 -0.140505 -0.990080
vn -0.000002 -0.140505 -0.990080
vn -0.000002 -0.140505 -0.990080
vn -0.000002 -0.140505 -0.990080
vn 1.000000 0.000000 0.000000
vn 1.000000 0.000000 0.000000
vn 1.000000 0.000000 0.000000
vn 1.000000 0.000000 0.000000
vn 0.000000 0.000000 1.000000
vn 0.000000 0.000000 1.000000
vn 0.000000 0.000000 1.000000
vn 0.000000 0.000000 1.000000
vn -0.000001 0.000000 -1.000000
vn -0.000001 0.000000 -1.000000
vn 0.000000 0.000000 -1.000000
vn 0.000000 0.000000 -1.000000
vn -0.042429 0.987520 -0.151669
vn -0.003782 0.993399 -0.114648
vn 1.000000 0.000000 0.000000
vn 1.000000 0.000000 0.000000
vn 0.000000 -1.000000 0.000000
vn 0.000000 -1.000000 0.000000
vn 0.000000 -1.000000 0.000000
vn 0.000000 -1.000000 0.000000
vn -1.000000 -0.000001 0.000000
vn -1.000000 0.000000 0.000000
vn -1.000000 0.000000 0.000000
vn -1.000000 -0.000001 0.000000
vn 0.000000 -1.000000 0.000000
vn 0.000000 -1.000000 0.000000
vn 0.000000 -1.000000 0.000000
vn 0.000000 -1.000000 0.000000
vn 0.000000 -1.000000 0.000000
vn 0.000000 -1.000000 0.000000
vn 0.000000 -1.000000 0.000000
vn 0.000000 -1.000000 0.000000
vn 0.000000 -1.000000 0.000000
vn 0.000000 -1.000000 0.000000
vn 0.000000 0.000000 -1.000000
vn 0.000000 0.000000 -1.000000
vn 0.000000 0.000000 -1.000000
vn 0.000000 0.000000 -1.000000
vn 0.042429 0.987520 -0.151670
vn 0.003782 0.993399 -0.114648
vn 0.000000 -1.000000 0.000000
vn 0.000000 -1.000000 0.000000
vn 0.000002 -0.140505 0.990080
vn 0.000002 -0.140505 0.990080
vn 0.000002 -0.140505 0.990080
vn 0.000002 -0.140505 0.990080
vn 1.000000 -0.000000 0.000000
vn 1.000000 -0.000000 0.000000
vn 1.000000 -0.000000 0.000000
vn 1.000000 -0.000000 0.000000
vn 0.000000 0.000000 -1.000000
vn 0.000000 0.000000 -1.000000
vn 0.000000 0.000000 -1.000000
vn 0.000000 0.000000 -1.000000
vn -1.000000 0.000000 0.000000
vn -1.000000 0.000000 0.000000
vn -1.000000 0.000000 0.000000
vn -1.000000 0.000000 0.000000
vn -1.000000 0.000000 0.000000
vn -1.000000 0.000000 0.000000
vn -1.000000 0.000000 0.000000
vn -1.000000 0.000000 0.000000
vn 0.000000 -0.140505 0.990080
vn 0.000000 -0.140505 0.990080
vn 0.000000 -0.140505 0.990080
vn 0.000000 -0.140505 0.990080
vn 1.000000 0.000000 0.000000
vn 1.000000 0.000000 0.000000
vn 1.000000 0.000000 0.000000
vn 1.000000 0.000000 0.000000
vn 0.000000 0.000000 -1.000000
vn 0.000000 0.000000 -1.000000
vn 0.000000 0.000000 -1.000000
vn 0.000000 0.000000 -1.000000
s 1
g Gabriel_table:pCube4
usemtl initialShadingGroup
f 1/1/1 16/2/2 17/3/3 3/4/4
s 2
f 3/13/5 17/14/6 18/15/7 5/16/8
s 3
f 2/29/9 10/30/10 9/31/11 4/32/12
s off
f 19/41/13 20/42/14 21/43/15 22/44/16
s 4
f 5/45/17 7/46/18 1/47/19 3/48/20
s 2
f 5/16/8 18/15/7 40/19/21 31/20/22
s 3
f 6/35/23 9/31/11 10/30/10 8/36/24
s off
f 24/57/25 23/58/26 25/59/27 26/60/28
s 1
f 13/8/29 12/7/30 2/9/31 4/10/32
s 2
f 14/18/33 13/17/34 4/21/35 9/22/36
f 14/18/33 9/22/36 6/26/37 36/23/38
s 5
f 16/61/39 15/62/40 11/63/41 12/64/42
s 1
f 17/3/3 16/2/2 12/7/30 13/8/29
s 2
f 18/15/7 17/14/6 13/17/34 14/18/33
f 18/15/7 14/18/33 36/23/38 40/19/21
s off
f 7/73/43 15/74/44 20/75/45 19/76/46
f 15/77/47 16/78/48 21/79/49 20/80/50
f 16/2/51 1/1/52 22/5/53 21/6/54
f 1/47/55 7/46/56 19/51/57 22/52/58
f 12/81/59 11/82/60 23/83/61 24/84/62
f 11/85/63 10/86/64 25/87/65 23/88/66
f 10/30/67 2/29/68 26/33/69 25/34/70
f 2/9/71 12/7/72 24/11/73 26/12/74
s 6
f 27/89/75 29/90/76 39/91/77 38/92/78
s 2
f 29/24/79 31/20/22 40/19/21 39/25/80
s 3
f 28/37/81 30/38/82 6/35/23 8/36/24
s off
f 41/101/83 44/102/84 43/103/85 42/104/86
s 4
f 31/49/87 29/53/88 27/54/89 32/50/90
f 5/45/17 31/49/87 32/50/90 7/46/18
s 5
f 7/67/91 32/68/92 37/65/93 15/62/40
f 11/63/41 33/66/94 8/71/95 10/72/96
s off
f 46/105/97 48/106/98 47/107/99 45/108/100
s 6
f 35/93/101 30/97/102 28/98/103 34/94/104
s 2
f 36/23/38 6/26/37 30/28/105 35/27/106
s 5
f 15/62/40 37/65/93 33/66/94 11/63/41
f 38/69/107 34/70/108 33/66/94 37/65/93
s 6
f 39/91/77 35/93/101 34/94/104 38/92/78
s 2
f 40/19/21 36/23/38 35/27/106 39/25/80
s off
f 32/109/109 41/110/110 42/111/111 37/112/112
f 37/113/113 42/114/114 43/115/115 38/116/116
f 38/92/117 43/95/118 44/96/119 27/89/120
f 27/54/121 44/55/122 41/56/123 32/50/124
f 34/117/125 46/118/126 45/119/127 33/120/128
f 33/121/129 45/122/130 47/123/131 8/124/132
f 8/36/133 47/39/134 48/40/135 28/37/136
f 28/98/137 48/99/138 46/100/139 34/94/140
