# This file uses centimeters as units for non-parametric coordinates.

mtllib TARGETBASE.mtl
g default
v -5.875900 0.677500 -3.422800
v -5.875900 0.677500 4.539599
v 5.660500 0.677500 4.539599
v 5.660500 0.677500 -3.422800
v 5.660500 -0.114200 4.539599
v -5.875900 -0.114200 4.539599
v -5.875900 -0.114200 -3.422800
v 5.660500 -0.114200 -3.422800
vt 0.100288 0.279269
vt 0.100288 0.120731
vt 0.299712 0.120731
vt 0.299712 0.279269
vt 0.299712 0.120731
vt 0.100288 0.120731
vt 0.100288 0.279269
vt 0.299712 0.279269
vn 0.000000 1.000000 0.000000
vn 0.000000 1.000000 0.000000
vn 0.000000 1.000000 0.000000
vn 0.000000 1.000000 0.000000
vn 0.000000 -1.000000 0.000000
vn 0.000000 -1.000000 0.000000
vn 0.000000 -1.000000 0.000000
vn 0.000000 -1.000000 0.000000
vn 0.000000 0.000000 1.000000
vn 0.000000 0.000000 1.000000
vn 0.000000 0.000000 1.000000
vn 0.000000 0.000000 1.000000
vn 1.000000 0.000000 0.000000
vn 1.000000 0.000000 0.000000
vn 1.000000 0.000000 0.000000
vn 1.000000 0.000000 0.000000
vn 0.000000 0.000000 -1.000000
vn 0.000000 0.000000 -1.000000
vn 0.000000 0.000000 -1.000000
vn 0.000000 0.000000 -1.000000
vn -1.000000 0.000000 0.000000
vn -1.000000 0.000000 0.000000
vn -1.000000 0.000000 0.000000
vn -1.000000 0.000000 0.000000
s off
g TargetStand:Box01
usemtl TargetStand:___Default
f 1/1/1 2/2/2 3/3/3 4/4/4
f 5/5/5 6/6/6 7/7/7 8/8/8
f 3/3/9 2/2/10 6/6/11 5/5/12
f 4/4/13 3/3/14 5/5/15 8/8/16
f 1/1/17 4/4/18 8/8/19 7/7/20
f 2/2/21 1/1/22 7/7/23 6/6/24
